<?xml version="1.0" encoding="UTF-8"?>
<svg id="Capa_2" data-name="Capa 2" xmlns="http://www.w3.org/2000/svg" xmlns:xlink="http://www.w3.org/1999/xlink" viewBox="0 0 386 430.66">
  <defs>
    <style>
      .cls-1 {
        fill: none;
      }

      .cls-2 {
        fill: #580e0e;
      }

      .cls-3 {
        clip-path: url(#clippath);
      }
    </style>
    <clipPath id="clippath">
      <rect class="cls-1" width="386" height="430.66"/>
    </clipPath>
  </defs>
  <g id="Capa_1-2" data-name="Capa 1">
    <g class="cls-3">
      <path class="cls-2" d="M385.54,95.21l-10.14-3.48c-.53.43-1.13.82-1.8,1.19-2.82-1.35-7.14-2.63-10.75-3.73-3.65-1.13-6.58-2.09-7.73-3.32l7.18,1.66-11.95-4.82c1.23,1.1,2.33,2.15,3.31,3.14-4.41-1.01-6.2-.53-7.69-.33-.07.01-.13.01-.2.02l.03.71c-.06.03-.12.04-.18.07l-.03-.76c-1.27.15-2.21.09-4.04-1.32,1.69.38-3.98-1.98-3.86-4.39h.03c-3.87-.52-7.08-.66-9.55-2.93-.03-1.35,3.92-2.72,3.92-3.61-2.55.52-5.75-.82-8.8-2.05-2.39-.9-4.84-1.82-6.76-.9,1.13-.32,2.05-2.07,1.98-2.56l-2.69,1.52c-1.39-1.6-1.46-2.09-.47-3.35-5.04-3.05-.47,5.1-5.79.14.58.06.52-.4,1.71-.23-5.78-4.09-12.81-4.68-17.96-8.75.06-4.23,5.42,1.76,4.96-2.08-8.53-3.64-19.13-4.84-26.58-9.92l1.27,1.16c-2.1,2.36-3.32.21-4.95-2.06.19-.52.72-.68,1.95,0-2.82-4.36-2.18-2.23-2.79-1.1-1.04-1.26-2.28-2.32-3.98-2.32,1.17.19,2.71-1.9,2.16-1.52-4.41-3.31-10.16-4.65-17.64-7.21-.38-.51-.73-1.05-1.09-1.59h0c-.88-1.31-1.77-2.56-2.92-2.96-.08.12-.2.15-.3.23-.16-.11-.33-.23-.49-.35.27,0,.54.03.79.11.32-.44.59-1.04.81-1.89-.44-.4-1.41.43-2.3,1.28-2.23-1.53-4.62-3.03-6.31-4.48-1.41.47-2.85-.35-3.27.7-.29-.14-.57-.3-.86-.41,0-.02-.01-.03-.02-.04.27-.29-.4-1.17-1.56-2.35-1.05-1.34-2.21-2.46-3.5-3.35-2.11-1.96-4.4-4.06-5.84-5.7l.47-.43c-2.89,2.51-6.88-1.02-10.48-2.53,1.36-1.76,2.42-2.1,4.7-1.76l-3.02-2.01c-1.32.48-2.58.39-4.61-.45-.03-.08-.06-.16-.09-.24l.58-.46c.9.31,1.82.29,1.31-.16l-.62-.39.83-.66c-.77-.49-2.54-1.38-4.12-1.97l-8.31,12.06c1.82,1.04,3.77,1.96,5.62,3.17.92.6,1.82,1.28,2.67,2.07.88.71,1.71,1.54,2.48,2.55.36-.37.59-.94.78-1.58.03.08.04.14.08.22.04-.09.03-.25-.02-.44.13-.43.23-.89.35-1.35.32-.31.69-.58.85-.98.84,3.15,1.69,2.15,2.84,1.24.44.19.85.45,1.07.91l-3.53.31c1.7,2.54,2.38-.68,4.07.84-1.2,1.59.54,2.16-.65,3.26-.59-.2-1.14-1.86-2.31-1.76,1.86,1.86,3.76,4.66,3.79,6.43.45-1.06,1.52-2.21,3.23-1.38,4.15,2.58.06,2.92,1.89,5.36,1.75-.51,3.58,2.46,5.26-.05,1.2.76.68,2.07.72,3.05,2.85.21,10.22,5.85,9.44,1.66l-.44-.52c.14.01.26.08.42.1,2.88.56,5.38,1.92,7.73,3.55-.85.61,1.01,1.71-.4,3.23.83,1.6,2.3,3.75,1.24,4.07,3.82-.38,2.97,4.38,8.44,3.74-.4.92,2.55,1.86.61,3.53,3.6,1.52.22-1.93,1.18-2.77,6.78.56,9.17,11.2,18.79,12.18,2.64.95,4.7,1.27,6.59,1.43,1.36,1.03,2.87,1.64,6.1,1.63-2.22,1.17.3,3.42,2.61,4.42,1.12,1.02,2.33,1.78,3.73,2.36l-.74.68c.3.35.63.65.94.95-1.11-.34-2.52-.41-4.51.08l2.9-1.58c-1.54.19-3.92,0-6.56-.15-.91-1.4-1.87-2.99-3.17-2.71.65.58,1.24,1.64,1.96,2.66-4.72-.21-10.01-.08-12.88,2.6-.68-.79-1.49-2.58.45-2.82-10.23-1.9-23.39,2.87-31.11-.77l.9-1.44c-1.96.28-3.57,2.54-5.86.85.17-.61.89-1.45,0-1.6-1.07.45-5.31,2.3-7.8,1.24l2.29-1.55c-9.98-2.67-15.73,3.21-24.17,3.92.19-4.42-7.73-6.2-11.73-6.93l.15-.63c-5.93-.34-10.97.47-15.9,1.78-4.92,1.22-9.69,2.79-15.12,3.9-6.99-4.73-23.16-.81-34.47-2.2,1.79.58.12,3.47-1.76,4.17-2.7-.56-6.66,3.97-6.83-.11l.93-.05c-2.5-3.78-7.72-1.75-11.91-1.16l.28,5.36c-3.03-1.51-6.31-1.54-9.61-1.03-3.3.49-6.61,1.61-9.71,2.96-3.1,1.32-6.04,2.45-8.66,3.26-2.62.79-4.97.93-7.03-.2-2.15,2.06-5.3,3.4-7.28,5.71l-.98-2.69c-3.7,1.17-6.5,2.05-9.35,3.55-2.85,1.49-5.95,2.89-9.88,6.08l.62-2.85c-2.45,1.51-2.83,4.23-3.01,6.89-.09,1.33-.15,2.64-.42,3.81-.23,1.24-.66,2.33-1.58,3.15l-3.88-2.32c-1.82,1.66-3.99,2.86-5.85,4.57-1.91,1.63-3.88,3.26-5.76,4.99-1.91,1.71-3.28,3.83-4.63,5.95-1.3,2.15-2.36,4.44-2.59,7.08-.46-.45-1.39-1.33-.76-2.83-1.15,2.02-4.06,5.64-5.69,9.01-1.42,3.43-1.8,6.39,1.24,6.71-1.73-.67-2.95,1.6-3.34,4.73-.35,3.14-.18,7.02-.09,9.61l-2.49-1.47c2.44,5.04,3.48,5.34,3.23,11.15-.54,1.06-1.9.87-1.67-.2-1.49,3.49,2.21,3.55.07,8.39l-1.51-2.26c-.82,4.61.1,4.38,1.96,7.09.92,2.96-1.31,8.58-3.91,9.18,1.45.71,3.55,3.27,2.77,5.93-.96.35-1.55-.64-1.83-1.15-2.1,7.74,3.33,11.32.77,16.65-.93.16-1.38.53-1.64.98-.16-6.11-.23-11.02.05-10.57-2.65.02-2.88,5.04-6.62,1.11,2.17,4.06,6.47,10.67,5.77,15.49-.23.25-.45.49-.84.7l-.33-.47c-.16,1.13.16,2.1.67,3.01-.3,1.57-.53,2.58-.44,4.06-2.12.8-.47,5.76-.29,8.22,2.79-.55,2.73,2.67,4.69-.6-.15.41-.39-.41-.71-2.01-.13-.35-.22-.78-.42-.99.08.04.17.08.27.14-.25-1.59-.66-3.63-.87-6.01,1.56,1.8,3.07,3.62,1.82,6.47,1.96,1.02,3.99,2.13,4.96,2.78-3.6,3.78-4.63,10.43-6.91,11.72,1.33,3.58,2.38,7.84,3.89,11.66,1.46,3.82,3.36,7.18,6.51,8.85,1.12,1.89-.97,2.67-1.62,3.62-.79-1.06-1.02-2.48-1.91-2.96,2.21,3.81,3.27,12.02,7.18,12.07-.35,5.51-4.05-2.04-1.7,4.83l-1.34-.67c-1.18,7.68,2.78,12.68,6.46,17.81,3.78,5.13,7.38,10.36,6.19,19.01.11-1.18.15-1.77.68-2.17,2.34,18.18,14.98,33.7,16.77,51.97.94,5.06,3.35,4.65,6.19,6.76l-2.38,2.19,5.31,3.41c5.29,5.71-1.61,14.84,6.83,21.34l1.34-1.98c1.06,3.24,5.76,9.08,3.38,9.63.49.15,2.39.05,2.04,1.7l-1.38.81c2.09,2.06,4.11,4.14,6.23,6.15,2.04,6.24-6.15,2.05-1.8,10.62,2.23,2.88,9.19,6.51,9.36,4.77-.67-1.28-1.01-3.66.32-4.55l2.34,2.31c4.34-1.91,9.53-2.59,8.65-10.49l-5.04-3.13,1.19-2.57,2.24,3.76c.66-3.19-1.75-3.64-3.73-4.61.87-.95,1.28-1.99,1.19-3.12-2.14-.8-4.26-1.65-6.37-2.52,1.35-1.4,4.3.4,3.63-3.15-2.96-1.22-2.61,3.95-5.67.97.75-3.23,2.65-3.33-.29-5.2.9-.91,1.87-.68,2.86.14-2.46-1.74-3.65-6.01-6.46-6.19,1.26-3.53-4.46-7.85-.28-9.48-1.31-.31-5.11-2.82-6.29-4.98,6.66,1.92-3.41-8.52,2.32-9.71-5.73-1.12-6.62-10.12-11.26-14.55.47.16,1.43.47,1.4,1.04-.85-3.21.13-4.64.19-6.93-3.85,1.07-6.56-3.4-9.81-5.14,2.13-5.15,5.21.65,8.19-1.86-2.92,1.34-5.48-5.41-7.5-3.19,1.11-3.72.15-2.91,2.68-5.53-4.83,1.19-1.76-2.41-5.49-3.79.79-5.03,3.94-2.62.93-6.75.68-2.7,3.74.83,3.74.83-1.53-4.72-4.2-1.01-6.57-1.31-2.93-5.31,1.71-3.5,2.85-6.03-2.16-3.17-6.23-4.83-6.96-7.53.52-.39.57-.96,1.49-.6-4.09-2.84-3.6-11.07-8.48-14.42.22-.42.47-.67.71-.83-1.58,1.23-3.37,1.88-4.71,2.11-.73-2.14-3.42-3.4-1.31-4.88.3,1.36,1.28,1.2,2.18,1.61l-1.65-1.99c2.81-2.99,2.03,2.78,4.52,2.06-2.3-4.09-6.57-8.51-6.49-12.18,3.08-1.56,3.28,7.64,4.97,2.33l.18,5.58c4.11-5.44.51,3.27,5.08-1.94-.95-7.07-3.79-7.19-4.52-14.29-2.24-1.09-2.61,1.18-4.85.08-5.7-9.09,6.64-9.64.54-15.82-2.59-1.39-6.99-1.29-5.74-6.92l4.15,1.04c-.91-6.76-6.29-2.84-4.85-10.38,1.7,1.02,2.11,5.09,2.41,3.99,2.29-5.07-2.68-2.86-3.25-6.41l3.28-1.25c-1.63-7.04-5.04-14.67-6.25-22.65,1.05.38,2.24,1.65,3.13-.28-2.37-9.86-.55-21.42,2.41-30.39-.89-1.26-1.83-2.55-2.68-3.84.15-.82,1.54-1.36,1.99-.43,1.6-3.42-1.84-.4-2.76-2.26.08-2.1,2.06-2.48,2.77-1.08-.4-1.65-.82-3.68-1.05-5.86-.12-2.15-.13-4.49.04-6.82.07-2.37.74-4.56,1.47-6.58.8-1.98,1.61-3.84,3.06-5.02l.34,1.46c1.53-2.09.65-3.93-.03-5.76-.66-1.8-1.26-3.68,1.21-5.11l.03,1.04c1.69-2.23,2.89-4.83,4.51-7.1.8-1.15,1.59-2.29,2.39-3.42.78-1.15,1.53-2.31,2.51-3.23,1.91-1.89,3.55-3.92,5.73-5.18,2.16-1.28,4.34-2.24,6.54-2.66-.63-2.15,1.97-3.28,4.27-4.5,2.23-1.32,4.59-2.32,3.46-5.13,3.61-.24,5.05.12,6.72.22,1.72.18,3.74.19,8.21-.67,2.24-.73,2.04-4.75,4.76-6.38l1.09,2.92,2.91-4.46c1.07.93,2.14,1.88,3.22,2.89l2.55-1.53c-1.16.13-2.76-.69-2.85-1.6,4.05-2.59,11.29-.87,11.76.78,3.3-1.58,6.58-3.34,10.02-4.81-.01,1.27-1.74,1.97-2.95,3.09,5.05-4.23,1.63,3.01,6.29-.78-.82-.57.06-1.89.07-2.53,1.47.7,3.69.8,6.07.54,2.4-.2,4.99-.71,7.17-1.4l-.58,2.23c4.02-.3,8.22-1,12.59-1.69,4.34-.79,8.87-1.43,13.45-1.69-3.34-.8-2.84-4.55-.14-5.08l1.27,3.22c1.64-2.14-2.9-1.07.56-3.78,3.49.17,2.49,3.59.59,4.78,1.37-.48,2.74-.91,4.13-1.33.29.97-.67,1.53-.87,2.79,1.64-2.1,7.31,3.05,9.67-.58l.26.97c9.19-.11,13.36-1.32,20.91-1.35.19-2.84,3.13-2.17,5.44-4.44,5.57,1.1,11.66,3.43,18.37,3.58,4.79-1.17,1.5-2.33,3.71-3.91.21,2.58,6.93,2.71,3.34,4.37,8.08.14,10.3.1,20.68-1.12-1.02-1.15-2.23-1.71-1.52-2.54,1.9-.27,4.14,1.43,3.76,2.65l-.51.22c11.88-2.88,25.59,10.07,35.26,5.88l-.55.2,9.78-1.57c2.26.54,1.34.95.41,1.52-.32.06-.65.11-.96.18-4.07.91-3.96,4.04-4.96,6.3-2.2,1.13-3.77.33-5.7.32l.81-2.01c-13.06,7.97-29.02,8.32-41.95,15.62.61-.98.35-1.95,1.71-2.33-3.61-1.47-10.87,3.05-10.36,4.96-2.22.41-1.01-1.57-2.61-2.15-3.34-.52-6.52,5.12-8.75,3.26-.26-.2.11-.57.52-.9-2.28,1.38-8.2,2.08-5.82,4.03-5.58.24-9.61,4.1-14.23,3.72-.92,1.91-3.27,2.19-5.33,2.57l1.64,5.64,3.06,10.48,1.64,5.64c2.05-.38,3.82-.85,3.63-3.08.9,4.49,10.16.88,12.85-2.15-.72,1.65,3.26.54,2.51,2.75,3.74-1.16,6.95-2.97,5.64-5.03,8.45,3.22,12.68-8.28,18.54-2.69,10.47-5.61,20.34-10.22,30.08-14.17.91,4.48-10.97,3.67-9.2,8.14,7.29-3.7,11.59-7.89,18.13-10.26,1.25.27,2.4-.3,3.48-1.01.52-.12.99-.27,1.54-.36,2.62-.11-.84,2.3-1.45,3.29,8.99-4.57,18.52-4.96,26.29-9.81.1.41-.69,1.13-1.45,1.71,1.63-.63,4.07-.48,3.3-2.42l-1.47,1.02c-.99-.59-1.02-1.49-.57-2.5,1.41-1.01,3.63-2.68,6.09-4.37.74.38,1.84.31,2.91.31-2.21,1.89-4.76,3.62-6.55,5.21,2.33-.65,7.34-2.36,9.28-4.29.41.65.49,1.71-.05,3.57.25-.17.5-.39.74-.63.42-.3.79-.62,1.08-.95.58-.66.79-1.33.34-1.93,2.57-.33,3.96.11,1.85,2.37,9.5-3.94,4.34-4.73,12.48-7.06.94.77-.36,1.55-.28,2.76.97-.95,1.78-1.85,2.69-2.68,1.45.53,2.79,1.2,3.89,2.14l-.14-1.86c2.13-1.1,2.45.77,3.3,1.79l-.04-.99c-.32-.44-.52-.78-.04-1.11l-.07-1.74c.06,0,.12.02.18.02l.06,1.59s.02-.02.05-.03l.33.03-.06-1.54c1.15.14,2.2.48,3.06,1.19.79-.51,1.6-.95,2.42-1.35l-.07-1.98c3.83-1.58,6.11-3.27,8.19-4.73,2.74-1.87,5.1-3.34,13.38-4.77,2.34.56,3.91.78,5.32.77.7,0,1.36-.06,2.02-.15.3-.04.64-.09.99-.15.28-.06.41-.14.63-.21-.77-.64-1.65-1.42,2.63-1.32ZM288.51,67.9l-.16-.23c.18.06.33.14.5.2-.11.02-.23.02-.34.03ZM4.47,224.11c-.6-1.58-.11-2.19.44-2.47.14.77.35,1.65.69,2.8.11.04.24.12.37.16-.56-.09-1.08-.21-1.49-.48ZM20.6,204.77c.67.5,1.15-1.82,1.92-3.28-.07,1.18-.03,2.65.05,4.19-.97.39-1.99.07-1.97-.91ZM23.07,211.14s.05,0,.05,0c.15.98.28,1.83.36,2.36-.08-.49-.2-1.17-.41-2.35ZM280.4,107.11s-.06.04-.1.05l.11-.05h-.01ZM313.87,79.39c.96.61,1.81,1.46,2.57,2.41.11.14.21.29.31.43-.55.28-1.19.52-1.71.81-1.04-1.22-3.28-2.73-1.17-3.64ZM294.26,71.32c.02-.18.06-.35.11-.52.09.06.18.11.27.17l-.38.35ZM298.81,78.4c-1.03-.41-1.78-1.08-2.52-1.78,1.2.55,2.45.91,3.72,1.19-.36.18-.77.38-1.2.59ZM311.28,83.8c.26.15.36.34.37.54l-.37-.54ZM316.56,93.83s0-.03,0-.03c0,.01,0,.02,0,.03ZM317.69,86.53c-1.24-.11-1.81-.33-1.95-.62l.51.33c-.22-.16-.34-.24-.54-.38v.02l-6.82-4.41c0-.71-.17-1.3-.48-1.8.23-.07.49-.12.77-.16,2.11.71,3.87,1.96,5.04,4.32-.14.48.21,1.12,1.5,2.03-.16-.53.99-1.29,1.92-2.19.06.26.1.52.14.77.1.88,0,1.6-.08,2.09ZM318.04,114.94c.36-.58.82-1.08,1.24-1.61.48.08.91.24,1.21.56-.75.63-1.56,1.25-2.45,1.05Z"/>
    </g>
  </g>
</svg>