<?xml version="1.0" encoding="UTF-8"?>
<svg id="Capa_2" data-name="Capa 2" xmlns="http://www.w3.org/2000/svg" xmlns:xlink="http://www.w3.org/1999/xlink" viewBox="0 0 242 431.04">
  <defs>
    <style>
      .cls-1 {
        fill: none;
      }

      .cls-2 {
        fill: #580e0e;
      }

      .cls-3 {
        clip-path: url(#clippath);
      }
    </style>
    <clipPath id="clippath">
      <rect class="cls-1" width="242" height="431.04"/>
    </clipPath>
  </defs>
  <g id="Capa_1-2" data-name="Capa 1">
    <g class="cls-3">
      <path class="cls-2" d="M241.73,359.05c-.1-3.44-2.66-1.51-4.21-2.17-.94-3.97,1.85-1.95,3.14-3.41-.78-2.52-3.46-4.24-3.51-6.1.42-.18.54-.56,1.13-.18-2.26-2.44-1.02-7.86-4.06-10.53.2-.26.4-.41.59-.49-1.23.7-2.55.98-3.51,1.03-.24-1.46-2.12-2.4-.51-3.24.11.9.81.85,1.42,1.18l-1.02-1.4c2.19-1.81,1.23,1.93,3.05,1.64-1.39-2.89-3.95-5.96-3.81-8.35,2.33-1.01,1.88,5.18,3.4,1.68l-.24,3.75c3.26-3.44.14,2.24,3.7-1.03-.17-4.95-2.26-5.09-2.67-9.97-1.56-.74-1.86.82-3.41.09-4.06-5.87,4.49-6.82-.04-10.78-1.96-.77-5.03-.27-4.61-4.14l2.98.26c-1.24-4.56-4.56-1.19-4.56-6.38,1.32.42,2.17,3.09,2.22,2.32.88-3.73-2.27-1.54-3.13-3.78l2.07-1.38c-2.25-4.5-6.1-8.75-8.99-13.37.78-.07,1.88.43,1.96-1.06-4.28-5.59-6.91-13.09-9.6-19.48l-3.18-.93c-.31-.5.15-1.46.85-1.16-.83-2.63-1.16.66-2.54.1-1-1.09-.2-2.28.88-1.89-4.19-2.74-10.92-7.99-12.51-13.01l1.1.29c-1.93-3.38-5.97-.3-6.94-4.1l.73.22c-4.95-6.59-12.92-11.05-15.71-17.46-2.81,1.66-5.6-6.06-8.56-2.96-2.6-4.32-.98-4.29-5.77-9.1-1.4-1.12-3.65.8-5.7.03l1.1-1.91c-1.23.11-2.49.31-3.73.48l-.05-3.06-2.06-.53c.65.52,1.02,1.72.59,2.21-3.2-.76-6.04-5.06-5.62-6.1-2.52-.65-5.03-1.11-7.52-1.66.4-.55,1.2-.53,2.05-.52-2.97-.13.9-2.43-2.95-2.14.22.66-.8,1.08-1.06,1.44-1.07-1.98-4.78-3.69-7.73-4.41l1.15-1.15c-4.77-2.57-10.63-3.93-15.94-6.42,1.63,1.52.09,3.71-1.6,3.22l.36-2.41c-1.61.83,1.26,1.57-1.56,2.18-1.88-1.19-.2-3.02,1.25-3.17l-2.74-.41c.16-.7.88-.76,1.41-1.49-1.64.84-3.03-4.07-5.53-2.52l.18-.68c-5.03-2.63-7.63-3.17-11.54-5.45-1.14,1.66-2.4.33-4.45.94-1.22-1.21-2.32-2.71-3.56-4.13-1.15-1.49-2.43-2.91-3.97-4.11-2.69-1.09-1.71.74-3.44.79,1.04-1.48-1.91-4.03.46-3.58-1.71-1.54-2.84-2.55-4.08-3.56-.57-.51-1.19-1.01-1.98-1.6-.77-.66-1.66-1.43-2.77-2.38-.28.93-.11,1.69-.85,1.74-.91-.69-.68-2.5.14-2.81l.3.14c-2.96-2.02-3.54-6.28-3.85-10.1-.35-3.86-.36-7.52-3-9.56l.27.24c-1.2-1.6-2.31-3.3-3.45-5-.31-2.67,1.7,1.21,2.34-.97-4.45-5.34-1.67-9.67-4.49-14.43,2.35-2.41,1.76-5.87,1-9.57-.78-3.68-1.69-7.59-.18-10.45l-1.24.41c-1.35-1.32.58-1.76.81-2.82-.98.21-1.03,1.61-1.79.78-2.38-11.98.82-25.04,2.21-37.4.04-.39,0-.71-.05-1.01.59.93,1.25,1.89,1.98,2.91-.12.13-.26.14-.4.04l1.26,1.16c.1.15.21.3.32.44-.72.05-1.6,1.12-1.77-.18.07,2.73,1.97,3.92,2.96,5.02.15.53.33,1.07.52,1.61-.05.14-.11.27-.2.42l-.3-.22c.41.57.74.98,1.04,1.28.36,1.01.7,1.97.89,2.84,1.02.27,1.45,1.33,2.19.75l-1.58,2.03,1.68-.33c-.05,1.28.14,2.45.51,3.53-.41.9-.95,1.85-1.8.44,0,5.44,1.14-1.66,3.03,3.11l-.6-2.04c.8,1.6,1.9,3.04,2.93,4.48-.1.09-.2.19-.33.28.21.02.36-.02.49-.06,1.11,1.56,2.11,3.13,2.58,4.91-1.34-.39-1.46-1.91-1.9.64,1.51-.02,1.98.8,2.15,1.87-.03.4-.06.81-.16,1.24-.32-.75-1.52-1.47-1.28-.88l1.61,2.67c.07.53.21,1.01.51,1.34.1-.04.18-.02.27-.04l.21.34c-.18-.09-.35-.17-.48-.3-.35.16-.73.42-1.18.83.11.38,1.07.17,1.94-.06l.15.24c.2-.16.35-.29.47-.41.14-.04.27-.07.39-.09-.11.01-.18-.03-.28-.03.05-.06.1-.11.14-.17.44.43.83,1.11,1.22,1.91-.15.49-.27.99-.39,1.37.23-.22.57-.26.89-.31.11.23.22.47.34.7-.1.58.08.78.43.81.31.56.64,1.11,1.04,1.6-.55.1.16,2.59.89,5.25l6.68-2.93c-.38-1.66-.76-3.39-.9-4.67l.44-.08c-.48.08-.89,0-1.27-.14-.11-.4-.29-.79-.44-1.41l.03.18-.67-3.5c.26.15.53.33.83.58l-.88-2.11c-.98-.18-1.66-.67-2.51-1.93l2.04-.21c-.82-1.82-2.47-3.32-3.59-5.29.08-.7.24-1.24.68-1.17-2.38-.95-.08-3.41-3.52-4.71.58-.41-.79-1.84.98-2.2-1.09-1.41-1.06-.28-1.28.55.05-.89.23-1.7.62-2.21-.69.44-1.76.72-2.38-.3-1.25-2.78,1.18-1.61,1.17-3.53-1.18-.31-.98-2.49-2.95-1.74-.33-.83.52-1.35.92-1.89-1.46-1.1-3.04-6.7-4.44-4.21l.02.43c-.07-.05-.1-.14-.18-.2-3.63-3.7-3.1-9.47-5.24-13.8.03-.01.05-.02.08-.03-.05-.06-.12-.1-.18-.15-.14-.27-.24-.54-.4-.79l.66-.26c-.95-1.27-1.71-2.79-2.51-4.19-.79-1.38-1.63-2.64-2.82-3.56-.15-.37-.15-.95-.05-1.52l.12.12c-.03-.07-.07-.15-.1-.22.16-.78.53-1.51,1.02-1.56-1.65-2.61-2.22-1.94-3.13-7.21,2.01,1.64.28-2.21,1.84,2.13-.59-2.24-.83-3.98-1.3-5.43-.27-.84-.66-1.6-1.18-2.23L52.2.12l-4.86,8.57c-.74-1.14-1.45-1.8-2.09-2.3-.9,3.31-1.66,6.24-2.42,8.07-.77,1.84-1.54,2.58-2.64,1.96-.33,2.8.29,2.11.88,1.59.4-.36.78-.62.91.14l-1.9,3.35c-.32.07-.65.12-.98.16-1.03.11-2.03.26-2.33.95-1.34,1.68-1.74,3.84-1.9,5.93-2.43,1.44-3.64,6.43-2.47,7.08-.86,1.22-1.27-.32-2.33.13-1.9,1.31-.55,5.52-2.52,5.66-.33.03-.23-.76-.18-1.15.13,1.55-3.01,5.31-.67,5.1-2.42,2.72-2.23,6.4-4.48,8.39,1.21,2.59-3.57,4.93-.96,6.79-.62-.35-1.2-.32-1.74-.05-.04-.16-.07-.31-.1-.45,0,.19-.04.35-.05.53-1.17.71-2.07,2.63-2.45,4.43-.86.81-1.72,1.49-2.16,2.17l.04-.73,1.24-2.2c-.42.57-.84,1.31-1.24,2.09l.06-1.09c-.04.63-.17,1.16-.34,1.64-.06.11-.12.22-.18.34l.13-.21c-.08.2-.16.4-.24.6-.01-.02-.03-.02-.04-.04-1.01,2.3-1.41,4.64.28,4.93-.43.21-.79.46-1.1.72-.08-.28-.06-.68.15-1.3-.04.65-.36,1.34-.87,2.05-.1.13-.2.24-.29.38-.26,0-.33-.34-.33-.64-2,1.73-1.28,2.41-.58,3.38-.17,1.08-.23,2.16-.47,3.07-.89-.16-1.88.55-1.92,1.14.4-.88,1.03-.77,1.56-.2-.44.82-1.2,1.4-2.66,1.49-.9,4.82-1.91,9.32-3.01,13.64-.55-.22-1.06-.49-1.6-.05-.14-.38-.41-.69-.95-.86-.29,1.46-.44,2.8-.56,4.09C1,100.09.11,100.77,0,102.73c.89-.11,1.31-.23,1.55-.07-.09,1.11-.2,2.21-.4,3.31l12.24,5.24c.04-.18.09-.37.13-.55l1,.44c1.38-1.29,1.77-2.84,1.98-4.53.06.47.11.96.21,1.21,1.05-4.97,3.67-8.97,5.05-13.3.19.04.45.02.93-.15-.33-.04-.63.03-.92.12.36-1.14.66-2.29.79-3.49.27.14.32.82.32,1.44.35-1.05,1.47-2.15.08-2.63l-.07,1.14c-.36.1-.67.06-.93-.08-.07-.59-.32-1.16-.97-1.59l2.69-1.5c1.14-1.71.9-3.17.51-4.6.6-.1,1.33.26,2.32,1.58.04-.78-.22-1.89-1.19-2.14.7-.86,1.36-.95,1.93.5.36-1.65.23-2.48.05-3.14.29-.67.38-1.18-.17-1.44.48-.17.54-.96.58-1.87.52.33.54,1.03,1.11,1.66-.35-1.49-.69-2.98-.35-4.56.1-.09.2-.19.34-.24-.05-.11-.11-.23-.19-.35.19-.59.49-1.19.92-1.81.32.34.97.24.59,1.06,1.26-3.18.97-6.32,1.63-9.43.71-1.66,1.33-3.36,2.2-4.73,1.64,2.06,1.72-.1,2.99-.64.71,3.17,2.78,3.85,2.54,8.21l.85-.52c2.76,2.78-1.58,2.3.47,5.06l-2.82.83c.67,1.83,2.74,6.37,3.34,9.61-2.13-1.8-3.26-5.63-4.48-7.99-.04,1.81.26,6.17,1.66,7.08-.28-.72-.98-1.64-.55-2.36,2.23,2.19,3.39,5.07,3.44,8.65-5.5-.45-1.04,9.42-5.04,12.3,2.44,6.28.11,12.85,1.45,20.4,3.86-3.23.41,2.18,4.68,1.1.52,1.66.57,2.32.32,2.53l.12-.38c-.06.17-.09.26-.15.4h.02c-.6,1.87-1.17,3.76-1.69,5.68-1.03,1.48-1.25-1.49-2.19-1.17.37,3.92-1.54,1.94-2.19,4.74,1.42-.82,2.47.92,2.35,3.25l1.33-3.51c3.39,4.85-2.62,5.45.99,10.39l-1.78-1.39c1.45,2.59,2.9,10.48,7.29,11.96-.31.65-1.19,1.72-1.92.61.95,3.42,3.39,6.76,5.74,9.8,1.22,1.52,2.32,2.99,3.34,4.42.95,1.44,1.72,2.85,2.15,4.33l-1.2.15c1.09.98,2.97.79,3.28,2.8-.4.21-1.2.22-.82.78.39.18,1.35.61,2.3,1.2.96.53,1.91,1.18,2.29,2.03l-1.92-.26c.97,1.51,2.06,2.64,3.22,3.49,1.21.8,2.47,1.36,3.73,1.82,2.49.99,5.17,1.32,7.55,2.8-1.92,2.45,1.85,6.55,3.88,8.35l-.32.32c6.57,4.65,12.84,4.59,19.61,6.54,2.41,5.02,12.67,7.49,18.02,11.95-.71-.94,1.16-2.17,2.39-1.96,1.18,1.23,4.88-.19,3.46,2.33l-.49-.28c-.07,3.06,3.13,3.72,5.35,4.85l1.99-3.23c1.78,3.89,5.74,5.3,9.39,6.61,3.57,1.4,7,2.52,7.13,5.59,1.79.02,3.39,1.05,5.2,1.08l-1.19,1.65c1.62,1.39,2.78,2.48,4.15,3.51,1.38,1.01,2.87,2.06,5.07,3.48l-1.72.49c2.19,1.91,6.59-2.38,8.8-.62l-1.3,2.86c2,1.66,3.58,3.82,5.23,5.84,1.7,1.98,3.58,3.71,6.32,4.61-.38.25-1.1.76-1.77.24.82.9,2.11,2.91,3.45,4.29,1.3,1.42,2.72,2.18,3.96.46-1.94,1.84,3.38,4.13,6.07,5.64l-1.82.93c3.45.24,4.15-.19,6.71,2.09.23.68-.54,1.29-.92.76.84,2.06,2.66.33,3.68,3.35l-1.75-.21c1.53,2.26,1.87,1.73,3.96,2.11,1.63.99,2.56,4.59,1.22,5.92,1.11-.29,3.14.2,3.56,1.86-.46.55-1.14.27-1.46.13,1.28,4.53,5.47,4.69,5.31,8.4-.55.37-.74.7-.79,1.03-1.72-3.17-3.04-5.77-2.78-5.6-1.58.94-.47,3.59-3.77,2.89,2.24,1.29,6.97,3.26,7.4,6.24-.09.2-.19.4-.4.62l-.32-.17c.13.66.54,1.1,1.06,1.45.13.94.18,1.54.54,2.32-1.18.93.62,3.33,1.13,4.67,1.79-.92,2.27.94,3.06-1.35-.04.27-.33-.16-.8-1.01-.15-.18-.28-.4-.44-.48.06,0,.13.01.2.02-.44-.84-.96-1.97-1.65-3.21,1.45.57,2.73,1.32,2.36,3.27,1.48.15,3.03.38,3.79.56-1.68,2.97-1.71,7.09-3.15,8.2,1.33,1.83,2.44,4.18,3.64,6.29,1.24,2.1,2.78,3.91,4.93,4.75.81,1.1-.64,1.72-1.08,2.33-.56-.6-.74-1.45-1.37-1.67,1.63,2.15,2.39,7.07,5.02,7.06-.42,3.41-2.77-1.18-1.35,3l-.92-.4c-.52,2.32-.21,4.21.44,5.98.67,1.76,1.82,3.35,2.85,5.03,2.02,3.33,3.97,7.03,1.65,12.08.27-.69.39-1.04.82-1.21-.64,5.57.09,11.15.45,16.81.23,2.83.15,5.66-.06,8.44-.3,2.78-1.02,5.51-2.17,8.09-1.15,2.95.48,3.46,1.5,5.52l-2.22.36c.69,1.18,1.36,2.36,1.97,3.56.49,2.42-1.15,4.17-2.64,6.03-1.57,1.86-2.95,3.82-1.9,7.03l1.57-.38c-.75,1.95-.9,6.61-2.4,5.82.2.28,1.27,1.08.33,1.66l-1.1-.26c.14,1.81.2,3.61.3,5.45-2.04,3.49-3.97-1.95-6.11,3.3-.32,2.09.94,6.82,1.92,6.37.35-.79,1.44-1.82,2.52-1.48l-.16,2.08c2.97,1.55,5.54,4.4,9.53.4l-.65-4.06,1.92-.55-.96,2.88c2.03-1.09,1.18-2.58.66-4.04.9,0,1.63-.29,2.15-.87l-1.94-4.32c1.38-.03,1.97,2.28,3.4.22-.91-2-3.27.65-3.38-2.21,1.9-1.21,2.96-.41,2.24-2.69.9-.05,1.31.51,1.46,1.39-.52-2.02.84-4.72-.64-6.04,2.21-1.3.85-5.97,3.89-5.14-.59-.71-1.73-3.59-1.61-5.22,3.18,3.65,1.29-6.01,5.14-4.59-3.08-2.74-.31-8.26-1.94-12.4.25.24.76.72.55,1.05.47-2.19,1.55-2.75,2.31-4.15-2.72-.48-3.23-3.96-4.88-5.86,2.81-2.6,3.22,1.77,5.84,1.04-2.27.03-2.07-4.84-3.99-3.95,1.71-2.04.82-1.77,3.15-2.82-3.5-.38-.6-1.96-2.76-3.66,1.7-3.04,3.33-.85,2.11-4.15,1-1.63,2.38,1.31,2.38,1.31ZM78.94,110.99l-.02-.02,1.27-.56s0,.01.01.02l-1.26.56ZM82.33,109.48s.01,0,.02.01l-1.26.56s0-.01-.01-.02l1.26-.55ZM81.08,99.23l-.07.7c-.97-.09-1.7-.3-2.28-.59-.02-.03-.03-.06-.05-.09,1.03-.35,1.7-.35,2.4-.02ZM3.03,103.29c-.16-.08-.29-.18-.4-.29l.83-3.78.26,1.58c-.23.82-.45,1.66-.69,2.48ZM14.65,67.94l.62-.08c-.21.1-.42.14-.62.08ZM41.72,48.24c-.56-.38-.85-.68-1.05-.9.42-.42.65-.79.76-1.15.1.71.2,1.41.29,2.05ZM40.55,41.66c.24.92.44,1.86.6,2.81-.43-.86-1.02-1.72-.6-2.81ZM40.35,46.69c.26.32.52.35.31.64-.17-.19-.28-.32-.43-.38.04-.08.08-.18.12-.27ZM37.13,54.98c.11-.35.23-.7.35-1.06.09.29.18.57.26.84l-.61.22ZM38.36,53.64v-2.19c.21-.57.43-1.12.65-1.67.06.16.09.35.16.49l.52-2.11c.04-.08.07-.16.11-.24.92.15,2.26-.04,2.53,2.16-1.04,1.01-1.97,3.32-3.96,3.57ZM53.74,51.98c-.04.4-.09.8-.11,1.22-.13-.7-.24-1.41-.32-2.11.08.3.23.6.43.89ZM53.48,49.72c-.13.27-.21.54-.22.79-.03-.32-.07-.64-.09-.96.13.04.23.09.32.17ZM53.13,46.91v.43c-.03-.07-.04-.13-.05-.19v-.12s.03-.08.05-.11ZM51.74,53.45l2.09,1.55c.16.45.42.86.85,1.18-.53-.55-2.3-.06-1.83-.05.26,1.08.69,2.11,1.23,3.15-1.68-1.51-4.66-1.72-2.34-5.83ZM207.09,297c-.63-.75-.43-1.2-.11-1.49.24.38.51.84.92,1.41h.27c-.39.08-.76.14-1.07.08ZM213.18,281.45c.58.09.18-1.44.22-2.58.32.73.79,1.6,1.31,2.51-.5.53-1.25.65-1.53.07ZM216.54,284.59s.04-.02.04-.02c.34.57.63,1.07.82,1.38-.18-.28-.42-.68-.85-1.36Z"/>
    </g>
  </g>
</svg>