<?xml version="1.0" encoding="UTF-8"?>
<svg id="Capa_2" data-name="Capa 2" xmlns="http://www.w3.org/2000/svg" xmlns:xlink="http://www.w3.org/1999/xlink" viewBox="0 0 312.42 432">
  <defs>
    <style>
      .cls-1 {
        fill: none;
      }

      .cls-2 {
        fill: #580e0e;
      }

      .cls-3 {
        clip-path: url(#clippath);
      }
    </style>
    <clipPath id="clippath">
      <rect class="cls-1" width="312.42" height="432"/>
    </clipPath>
  </defs>
  <g id="Capa_1-2" data-name="Capa 1">
    <g class="cls-3">
      <path class="cls-2" d="M311.47,10.27c-1.15.35-3.13.32-3.62-.81l2.36-1.55c-.72-3.6.16-7.88-7.15-7.91l-3.75,3.73-2.06-1.12,3.76-1.49c-2.72-.77-3.6,1.11-4.77,2.61-.69-.74-1.56-1.13-2.58-1.12-1.06,1.63-2.13,3.21-3.13,4.92-1.06-1.1.91-3.44-2.31-2.94-1.43,2.35,3.13,2.14.18,4.53-2.72-.64-2.64-2.14-4.56.2-.71-.71-.42-1.48.41-2.28-1.78,1.97-5.67,2.91-6.03,5.16-3.07-1.02-7.09,3.88-8.34.63-.34,1.08-2.66,4.27-4.56,5.34,1.82-5.42-7.55,3.3-8.54-.98-.94,4.7-8.76,6.57-12.4,10.88.1-.41.33-1.19.83-1.25-2.74,1.17-4.01.71-6.02,1.07,1.21,2.84-2.39,5.81-3.53,8.68-4.65-.65.02-4.19-2.42-6.03,1.43,2.03-4.15,5.36-1.99,6.48-3.33-.1-2.47.54-5.05-.82,1.66,3.48-1.82,1.97-2.46,5.21-4.39.64-2.84-2.41-5.89.99-2.42.2.13-3.1.13-3.1-3.82,2.45-.19,3.51-.06,5.41-4.01,3.63-3.26-.35-5.61-.53-2.3,2.61-2.84,6.27-4.93,7.64-.43-.27-.93-.13-.81-.94-.76,1.97-2.87,3.53-4.99,5.2-2.05,1.75-4.13,3.61-4.85,6.01-.4-.01-.67-.1-.86-.23,1.41.72,2.4,1.81,2.94,2.72-1.54,1.27-1.76,3.71-3.53,2.7.99-.71.6-1.37.68-2.19l-1.13,1.94c-3.17-.94,1.66-2.5.41-4.07-2.68,3.23-4.98,7.89-7.79,9.39-2.21-1.6,4.98-5.45.31-4.54,1.43-.82,2.95-1.51,4.42-2.27-5.55-.94,2.52-1.61-2.99-2.96-5.56,3.41-4.66,5.68-10.07,9.22-.14,2.05,1.79,1.34,1.66,3.39-5.12,7.83-9.79-.22-12.38,6.91-.07,2.47,1.74,5.36-2.95,7.3l-.88-3.27c-4.78,4.02.44,5.55-5.58,8.66-.02-1.65,2.74-4.15,1.83-3.74-4.64,1.3-.91,3.32-3.19,5.59l-2.35-1.4c-4.47,4.91-7.95,11.62-12.55,17.27-.31-.82-.07-2.3-1.83-1.59-5.16,7.76-13.27,14.53-20.02,20.57l-.34,4.08c-.52.6-1.73.5-1.54-.44-2.86,2.17,1.03,1.04.69,2.9-1.1,1.63-2.67,1.21-2.43-.18-2.16,6.11-7.22,16.29-12.79,20.2l.16-1.42c-3.65,3.58.61,7.31-3.8,9.88l.18-.95c-3.5,4.17-6.31,9.16-9.31,13.62-2.96,4.5-5.79,8.68-9.46,11.31,1.94,2.98-6.73,8.54-3.07,11.45-4.99,4.27-4.97,2.24-10.45,9.23-1.29,1.97.9,4.44-.03,7.2l-2.16-1.05.41,4.62-3.54.53-.65,2.71c.6-.91,1.98-1.57,2.52-1.1-.89,4.26-6.04,8.47-7.2,8.04-.89,3.29-1.72,6.58-2.46,9.91-.59-.46-.52-1.52-.44-2.65-.34,3.96-2.66-.88-2.65,4.13.77-.37,1.15.92,1.55,1.22-2.3,1.63-4.73,6.65-5.7,10.71l-1.21-1.39c-1.64,3.35-2.98,7.05-4.32,10.87-1.31,3.83-2.47,7.83-4.02,11.71,1.81-2.52,4.23-.84,3.61,1.53h-2.73c.9,2.03,1.82-2.03,2.45,1.66-1.39,2.78-3.46.94-3.58-1.03-.17,1.29-.39,2.55-.52,3.85-.79-.05-.86-1.03-1.69-1.58.96,2.01-4.59,5.33-2.76,8.37l-.79-.05c-2.88,7.86-3.05,11.81-5.05,18.32,2.07.78.74,3.15,1.91,5.61-.96,2.21-2.23,4.47-3.44,6.89-.11-8.81,0-17.7-.58-26.39-.54-6.41-7.59-2.58-5.49-11.03l2.88,1.89c-1.3-3.27-2.2-6.59-2.92-10.06l-19.79,2.25c1.05,9.51.44,19.23,2.94,28.3-.64-.7-1.41-.68-1.48-1.9-1.7,2.76.53,9.76,2.05,9.71-.05,1.95-1.35.54-2.05,1.78-.93,2.72,2.81,6.49,1.04,8.02-.19.17-.42-.2-.6-.61.67,2.2.23,7.32,2.1,5.69-.73,4.76,1.52,8.91.48,12.72,2.56,2.29-.66,8.1,2.8,8.66-3.54-.11-2.32,8.4-.48,11.26-1.13-.92-.94,2.65-2.48,1.58.26,3.38,1.11,6.44,2.88,5.73-.9,2.56-1.02,5.62-.82,8.28.21,2.7.75,5.11,1.23,7.23.24,1.08.47,2.07.64,3.05-.33.26-.66.67-.97,1.42.48-.17.88-.09,1.18.15.24,2.47-.02,5.16-1.43,9.33,1.66,9.28,3.23,18.09,4.68,26.21,3.32-5.16,6.29-9.77,9.22-14.33-.72,3.74-2.9,7.08-5.14,10.33-2.23,3.26-4.46,6.33-5.97,10.48-.2.29-.41.94-.66,1.85.02.09.04.18.05.24,5.2-8.38,9.21-15.77,12.65-21.89,2.54-4.51,4.76-8.29,7.29-11.82l.55.05c.21-.4.36-.86.46-1.39.3-.4.61-.8.93-1.19l.14.27c-.02-.12-.01-.3-.02-.43.31-.39.59-.78.91-1.16,2.16-2.15-.84,3.74-1.6,5.81,4.22-7.04,8.17-12.32,12.18-17.79.94-1.29,1.87-2.58,2.8-3.85.57-.81,1.13-1.63,1.65-2.46,1.05-1.66,1.99-3.36,2.72-5.19.26.21.06,1.09-.18,1.88.79-1.29,2.48-2.53,1.08-3.33l-.51,1.44c-2.4.42-1.52-3.84-1.19-6.55.3-.3.64-.58.99-.86,2.08.88,4.67-5.64,6.62.06.34-.98.46-2.43-.54-2.88,1.12-1.01,1.9-1.02,2.01.91,2.47-4.87-.03-4.32,2.87-8.25.62.47.28,1.44.72,2.39.23-2.89.48-5.79,3.44-8.73.23.47,1,.45.27,1.43,2.84-4.18,3.62-8.55,5.9-12.68,1.21-.96,3.44-1.83,4.27-3.63l-.38-.55c.2.96-1.63,1.71-2.94,2.64.71-1.07,1.54-2.12,2.59-3.14l.35.51c-.04-.16-.16-.34-.33-.53.06-.06.1-.11.16-.17,1.37,3.83,2.45-1.49,5.05-.11l1.76-3.89-2.13.53c1.83-2.44,2.29-5.52,3.9-7.63,0,.05-.01.11,0,.16.08-.17.19-.35.28-.52.26-.29.53-.55.84-.79l-.63,2.91,3.59-5.88-3.07,2.41c1.39-2.55,2.86-5.51,2.45-7.29.72-.62,1.53-1.17,2.36-1.38.03.04.05.07.07.1-.14.83-.28,1.66-.56,2.43.71-.75,1.24-1.4,1.01-2.02.36.28.78.49,1.3.59-.59-2.33-.09-2.73-.29-4.33.25.08.45.23.54.46.67-1.26.96-2.12,1.39-2.93.95.53,1.83,2.18,2.47,2.17-.32-1.01.15-2.22.84-3.5.66-.55,1.24-.99,1.76-1.42l.09.17.18-.41c.97-.88,1.7-1.84,2.28-3.73.09.04.19.09.26.09l-.15-.48c.08-.29.17-.56.24-.9.61,2.41,3.88-.92,4.63-2.83l-2.2,1.07c.38-.58.43-.94.31-1.18.89-1.2,1.84-2.22,2.8-3.26l1.39,2.44c1.53-.94,2.66-2.1,3.53-3.37l-3.74-2.83c.04-.06.08-.13.12-.19l-6.31-4.77c-.04.06-.08.13-.12.19l-3.78-2.85c-1.33,2.08-2.06,4.42-2.83,6.6-.03,0-.05,0-.08,0-1.33,1.95-2.53,4.07-3.69,6.23-.75.56-1.63,1.02-2.72,1.3.08,1.48,1.07.65,2.09-.12l-1.36,2.56c-2.32,1.17-4.69,1.85-5.16,2.48-4.31,3.47.13,6.26-3.95,10.2.49-.02,1.19.16,1.72.64-1.23.69-2.78,1.41-3.8,2.54,0,0,0-.02-.01-.02-.01.03-.02.05-.03.07-.44.51-.79,1.08-.93,1.79.14-.37.01-.81-.18-1.19.46-.7.93-.88,1.15-.67.47-1.22,1.13-2.79-.6-2.13l.45.95c-.45.23-.96.66-1.49,1.15-.13-.14-.21-.17-.16-.03-.42.42-.82.87-1.21,1.33-1.25,1.19-2.34,2.12-2.62,1.04-.7,2-.2,2.14.73,1.55-.12.18-.23.35-.35.54-2.53,2.66-3.5,5.26-6.61,8.27.9-.36,2.22-.33,1.73.32-.81.82-1.37,1.47-1.78,2.01l-.02-.13c-2.6,1.83-5.36,5.9-7.79,8.31-.23-.66-.15-1.71-.08-2.42-1.32,4.84-6.11,6.4-7.95,8.38l.85-2.44c-.51,1.46-1.23,2.43-1.96,3.42l2.33-.05c-1.11.98-1.85,1.97-2.45,1.5.06,1.08,1.04,1.24,1.82,1.76-.64,1.01-1.23,2.05-1.78,3.1-.27-.21-.27-.65.31-1.53-4.36,2.63-1.36,1.58-.89,2.63-.1.2-.2.39-.3.58-.13-.8-2.38-.18-1.62-2.15-.4.65-.95,1.29-1.69,1.95-.35.01-.29-.47-.17-.87-5.2,3.42.67,3.8-2.93,8.65-.67-1.43-2.95-.41-3.29.56,1.14-1.53,2.05-.39,2.17,1.34-.41.24-.82.47-1.29.67.68-.88.91-2.66.35-1.96l-4.12,6.84c1.01.34,1.36.26,1.84.04-1.54,1.07-3.52,1.96-4.15,3.33.04.04.07.08.11.13-.05,0-.1,0-.15,0,.02-.04.02-.08.04-.12-.11-.09-.27-.18-.42-.26,0-.42,0-.85.02-1.27.05-4.65.3-9.05,2.24-12.08l.99.89c.02-1.64-1.53-3.22.06-4.94.44.21.99.89,1.22.18-.19-.92-1.09-4.66.11-6.59l.84,2.09c1.75-3.92,1.8-7.23,1.5-10.49-.32-3.26-.89-6.44-.26-9.98,3.31.94,6.2-5.14,7.67-8.15l.43.25c1.7-4.61,2.3-8.79,2.66-12.98.4-4.18.71-8.32,1.58-12.88,2.65-2.07,4.77-6.4,6.83-11.2,1.99-4.83,4.2-10.05,6.94-13.82-1.11,1.04-2.38-1.25-2.06-2.89,1.46-1.7.14-6.42,2.9-4.82l-.37.67c3.5-.22,4.56-4.53,6.06-7.61l-3.51-2.24c4.53-2.88,6.66-8.33,8.47-13.44,1.76-5.14,3.5-9.74,7.01-10.66.1-2.4,1.37-4.76,1.47-7.16l1.89,1.16c3.39-4.98,5.16-7.4,8.34-14.11l.61,2.11c2.16-3.55-2.77-7.76-.88-11.17l3.42.72c3.7-6.34,10.21-10.87,11.67-18.55.33.36,1.01,1.08.47,2.14,1.86-2.9,9.37-9.61,4.92-11.22,2.51,1.65,4.46-6.06,5.88-9.95l1.38,1.78c-.23-4.31-.78-4.85,1.42-9.06.9-.72,1.97.28.65,1.11,3.14-2.24.05-3.58,3.74-6.4l.05,2.16c2.51-2.86,1.73-3.08,1.78-5.72.82-2.41,4.96-5.29,6.83-4.46-.59-1.15-.57-3.84,1.35-5.16.77.25.59,1.17.49,1.62,5.27-3.83,4.27-8.8,8.73-10.7.6.41,1.05.43,1.45.31-3.32,3.77-6.06,6.76-5.94,6.37,1.53,1.3,4.43-1.52,4.43,2.71.98-3.4,2.08-9.87,5.54-12.09.27,0,.54-.02.86.09l-.11.45c.77-.53,1.18-1.26,1.45-2.05,1.1-.7,1.82-1.11,2.67-1.98,1.53.8,3.79-2.78,5.23-4.19-1.7-1.4.43-3.03-2.63-2.53.33-.13-.08.45-.93,1.51-.16.27-.38.55-.42.79-.01-.07-.03-.15-.05-.23-.88,1.01-2.02,2.31-3.32,3.79.27-1.93.74-3.81,3.15-4.61-.31-1.74-.57-3.59-.59-4.51,4.18.14,9.12-2.46,10.97-1.65,3.4-5.33,9.89-10.58,9.95-16.3.94-1.59,2.29-.51,3.2-.47-.47,1-1.4,1.78-1.4,2.58,1.8-3.24,7.51-7.2,6.26-9.94,4.22-1.91-.17,3.63,4.16-.7l-.06,1.21c5.97-2.2,8.58-6.57,11.53-11.01,1.46-2.21,2.98-4.45,5.05-6.32,2.11-1.8,4.75-3.27,8.3-4.02-.95.24-1.43.38-1.86.1,6.84-3.52,13.03-8.23,19.32-12.89,3.14-2.33,6.46-4.36,9.83-6.25,3.38-1.86,6.88-3.46,10.69-4.26,4.13-1.28,3.66-3.11,5.3-5.58l1.91,1.65c.89-1.49,1.76-3.03,2.68-4.51,4.89-4.49,12.28.39,17.95-6.24l-1.59-1.05c2.76-.84,8.02-4.4,8.28-2.53.16-.38.24-1.89,1.59-1.56l.55,1.11c1.89-1.56,3.78-3.17,5.76-4.59,5.45-1.04.96,4.86,8.45,2.38,2.57-1.44,6.68-6.27,5.39-6.67ZM33.11,370.07c-.08.13-.16.25-.24.38,0-.63.02-1.26.03-1.89.13.16.24.3.35.44-.4.33-.35.68-.14,1.07ZM14.04,276.05l-1.2.14-.02-.08,1.15-.13s.05.05.07.07ZM7.72,276.69s.02.05.03.08l-1.1.13s-.06-.05-.09-.07l1.16-.13ZM86.94,313.11c-.29,2.04-1.43,2.62-2.42,2.68-.12-.13-.24-.23-.36-.33.8-1.28,1.65-2.55,2.39-3.79.31.41.5.99.39,1.44ZM47.54,349.99c-.16.3-.31.59-.47.88-.09-.02-.18,0-.29-.04.32-.33.56-.6.76-.84ZM33.46,367.21c.39.42.46.92.31,1.49-.18.08-.32.16-.44.23-.23-.64-.23-1.18-.06-1.67.06-.02.12-.03.19-.06ZM140.56,118.43c-.07-.69-1.74.57-3.08,1.14.76-.75,1.64-1.74,2.55-2.81.77.27,1.13,1.04.53,1.68ZM143.26,112.99l-.03-.03c.57-.69,1.06-1.28,1.37-1.66-.28.35-.67.84-1.34,1.69ZM160.6,115.46c-.03-.08-.04-.21-.08-.3.21.38.4.76.44,1.15-.68,1.19-1.3,1.23-1.76,1.06.4-.49.85-1.08,1.4-1.9Z"/>
    </g>
  </g>
</svg>