<?xml version="1.0" encoding="UTF-8"?>
<svg id="Capa_2" data-name="Capa 2" xmlns="http://www.w3.org/2000/svg" xmlns:xlink="http://www.w3.org/1999/xlink" viewBox="0 0 300 432">
  <defs>
    <style>
      .cls-1 {
        fill: none;
      }

      .cls-2 {
        fill: #580e0e;
      }

      .cls-3 {
        clip-path: url(#clippath);
      }
    </style>
    <clipPath id="clippath">
      <rect class="cls-1" width="300" height="432"/>
    </clipPath>
  </defs>
  <g id="Capa_1-2" data-name="Capa 1">
    <g class="cls-3">
      <path class="cls-2" d="M299.33,7.73c-.85.93-2.74,1.84-3.94.85l1.04-2.52c-1.65-1.57-3.15-3.38-4.98-4.48-1.88-1.12-3.89-1.58-6.44-1.21.04,1.35-.15,2.68-.38,4.13-.73-.34-1.47-.73-2.18-1.11.7-.53,1.26-1.15,1.87-1.72-2.4-.62-1.87,1.26-2.05,2.95-.86-.79-1.71-1.24-2.45-1.29-.02,1.78-.29,3.54-.63,5.4-1.16-1.41-.36-3.8-2.72-3.69-.55,2.49,3.2,2.88,1.3,5.27-2.47-1.13-2.61-2.95-3.82-.52-.7-.99-.55-1.83-.04-2.61-1.07,1.99-4.23,2.18-4.46,4.77-2.51-1.89-6.19,2.35-7.03-1.9-.33,1.14-2.65,4.05-4.48,4.58,2.4-5.67-6.95.98-7.09-4.64-1.82,5-9.04,3.59-13.26,6.87.2-.41.59-1.22,1.04-1.06-2.66.05-3.65-1.21-5.46-1.8.27,3.82-3.66,5.34-5.49,8.02-3.8-3.13,1.24-4.74-.33-8.08.65,3.03-5.1,3.95-3.59,6.32-2.82-1.85-2.29-.75-4.07-3.67.33,4.79-2.17,1.18-3.74,4.41-3.95-1.73-1.65-4.27-5.34-2.18-2.12-1.13,1.11-3.39,1.11-3.39-4.03.6-1.3,3.8-1.81,5.98-4.6,1.82-2.66-2.24-4.6-3.78-2.83,1.44-4.56,5.14-6.81,5.39-.27-.55-.74-.69-.37-1.51-2.64,3.38-9.39,1.9-12.36,6.18-.33-.26-.53-.53-.66-.78.96,1.65,1.41,3.42,1.55,4.72-1.77.43-2.83,2.91-3.98.74,1.1-.16,1-1.1,1.36-1.93l-1.66,1.39c-2.39-2.96,2.31-1.68,1.8-4.13-3.45,1.81-7.08,5.52-10.08,5.21-1.33-3.1,6.3-2.56,1.91-4.59l4.62.27c-4.43-4.41,2.73-.2-1.51-5.03-6,.39-6.09,3.03-12.06,3.53-.85,2.1,1.07,2.54.23,4.64-7.21,5.21-8.52-6.39-13.36-.51-.95,2.59-.33,6.78-5.16,5.91l.34-4.01c-5.66,1.32-1.51,6.12-8.01,5.59.54-1.73,3.91-2.6,2.94-2.75-4.67-1.57-1.97,2.88-4.8,3.83l-1.69-2.92c-5.68,2.61-11.16,7.22-17.12,10.64-.06-1.05.6-2.49-1.29-2.75-7.31,5.05-16.91,7.86-25.23,10.89l-1.2,4.15c-.66.37-1.89-.31-1.52-1.23-3.35.99.86,1.6.19,3.45-1.42,1.23-2.97.07-2.47-1.33-3.63,5.25-10.06,14.01-16.66,15.82l.34-1.42c-4.44,2.37.08,7.98-4.95,9.07l.24-.94c-4.07,3.24-7.55,7.5-10.78,11.54-1.7,1.95-3.25,3.93-4.93,5.65-1.7,1.71-3.56,3.14-5.5,4.32,1.32,1.78-.43,3.73-1.97,5.75-1.46,2.07-2.6,4.24-.21,5.84-5.35,4.02-5.39,2.07-10.67,9.4-1.03,2.16,2.22,4.56,1.89,7.4l-2.89-.86c.57,1.56,1.15,3.09,1.88,4.63l-3.98,1.06.08,2.83c.44-1.02,1.87-1.9,2.67-1.52.1,4.22-4,9.6-5.57,9.56.4,3.54.55,6.98,1.48,10.36-.9-.21-1.33-1.21-1.8-2.3,1.49,3.81-3.49.12-1.01,4.88.69-.65,1.78.41,2.39.52-.93,1.21-1.43,3.25-1.59,5.51.01,2.22.45,4.64,1.01,6.66l-2.14-.6c.04,1.9.22,3.84.48,5.8.33,1.94.9,3.84,1.41,5.8.52,1.94,1.05,3.91,1.59,5.89.6,1.93,1.24,3.84,1.76,5.8.17-3.06,3.83-3.27,4.77-1.15l-2.82,1.74c2.29.92.53-2.66,3.65-.34.42,2.93-2.94,2.94-4.4,1.54l2.02,3.21c-.85.48-1.56-.2-2.78-.07,2.24.88-1.07,6.94,2.85,7.92l-.83.5c1.22,3.83,2.53,6.35,3.76,8.73,1.23,2.35,2.37,4.63,3.65,7.44,2.58-.92,2.95,1.56,5.7,2.41.93,4.57.9,9.96,3.23,14.85,2.72,2.95,2.56.11,4.72,1.04-2.19,1.23.07,6.05-2.65,4.19,2.88,5.75,3.56,7.3,8.36,14.01.65-1.17.7-2.24,1.68-2.07.92,1.22.23,3.46-.99,3.68l-.36-.27c1.6,1.76,2.41,4.03,2.81,6.47.2,1.22.3,2.48.35,3.76-.05,1.28-.1,2.56-.16,3.82-.13,2.52-.23,4.93.12,7.04.19,2.1.86,3.91,2.49,5.29l-.33-.32c1.34,2.08,2.85,4.21,3.93,6.4-.05,3.23-2.09-1.62-3.34.93,1.25,1.67,1.93,3.27,2.3,4.78.19.76.3,1.5.36,2.21-.01.72-.08,1.42-.15,2.1-.3,2.77-.7,5.25.69,8.34-3.85,2.26-3.9,6.32-4.05,10.75-.1,4.4-.17,9.2-3.22,11.77l1.77.03c1.3,2.01-1.41,1.74-2.05,2.82,1.34.16,1.91-1.39,2.6-.15-.71,7.14-3.65,14.07-7.49,20.35l-3.08,4.59c-1.07,1.59-2.14,2.77-3.4,4.53-2.03,3.41-4.78,6.48-7.45,9.89l-4.03,5.08-1.01,1.29c-.48.47-1.1.99-1.65,1.48l-3.39,3.02c-4.37,3.93-4.96,5.62-4.21,6.4.35.41,1.01.61,1.59.84.24.13.66.2.67.42.02.22-.03.47-.2.79,1.86.26,1.96,1.33-.4,4.74-.26.03-.55.05-.81.07-.19-.22-.38-.43-.57-.69-.63-.85-1.26-1.91-1.74-3.07-.53-1.4-1.01-3.45-1.14-5.16l-.14,1.38c-5.26.06,1.45-5.71-1.65-8.76.55.79,3.04.56,2.43.45-.11-3.76-1.91-7.31-4.11-11.83.09-1.6-1.92-1.38-.46-3.66.3-.32.51-.24.71-.03l-.83-1.2c.03-.4.04-.8.02-1.22.87-.15,1.78-.53,1.58.76,1.4-5.23-4.45-7.16-1.78-9.54l.32.35c-1.58-3.87-2.37-3.08-3.71-2.82.59-1.67.74-3.23.63-4.71l2.23-1.6-2.48-.08c-.11-.49-.23-.97-.39-1.44.15-.37.42-.66.96-.65-.84-.73-1.23-.87-1.49-.8-.46-1.13-.99-2.23-1.53-3.32-.51-2.87-1.96-5.66,1.18-6.8-2.45-.76-1.11,3.48-3.33.27,3.54-1.45.99-2.88.07-4.9.11-.33.2-.65.36-.98.22.99,1.62,2.15,1.47,1.35l-.99-2.57c1.76.82,1.31,2.87,2.83-.18-2.36-.48-2.41-1.99-2.03-3.69l.33-1.29c.1-.53.18-1.11.23-1.66.04-.55.11-1.11,0-1.59-.17-.46-.39-.89-.69-1.24-.84.31-1.55.09-2.17-.43-.58-.42-1.04-1.09-1.52-1.95-.94-1.69-1.85-3.98-3.36-5.65.55-.14.18-1.88-.45-4.13l-8.42,2.93c0,2.72.16,6.23-.09,8.5H0c1.45.03,2.35.71,2.99,1.7l.27,1.33.08-.72c.73,1.45,1.12,3.3,1.81,4.79-2.13.31-3.06-.06-4.32-1.48l.58,2.79c1.26.43,2.03,1.19,2.8,2.92l-2.77-.17c.9,3.69,4.6,6.86,3.82,12.01.23-.02.48-.09.73-.19.76,1.23,1.11,0,1.65-.84.29-.17.58-.35.88-.52.79.81,1.18,1.77,1.35,2.82l-1.84-1.1c-.44,1.96,1.24,1.23,1.94,1.91.02.23.03.47.03.72-1.52.42-.91,1.49-2.36,1.54-.27-.41.47-1.68-.4-2.19.06,2.03-.58,4.64-1.85,5.71,1.04-.39,2.54-.52,3.08.88.89,3.69-2.02,1.73-2.55,4.1,1.49.64.61,3.28,3.45,2.78.21,1.09-1.07,1.56-1.75,2.13,1.64,1.68,2.17,8.92,4.73,6.15l.1-.53c.08.08.1.19.19.29,2.52,3.55,2.33,7.83,2.4,12-.36-.08-.65-.21-.8-.47.09.3.19.57.31.84.18,0,.34-.02.5-.05,0,.39.03.78.05,1.17-.2-.38-.39-.74-.55-1.13-.17,0-.32.01-.52.01.25.47.61.83,1.06,1.14.09,2.06.31,4.08,1.07,5.93l-.94.18c1.59,3.06,2.17,6.99,3.98,9.45-.51.11-1.01.28-1.5.57,1.22.43,1.83.79,2.31,1.13-.27,1.04-1.34,2.21-2.33,2.01,1.22,3.06,2.11,3.37,2.21,6.85l-.1-.02.1.18c.02.73.01,1.54-.05,2.59-2.29-2.85-1.06,2.31-1.93-3.31.14,2.79-.05,4.84.16,6.69.2,1.82.83,3.54,2.46,4.99-1.2.29-1.64,2.02-1.6,4.13.04,2.08.53,4.4,1.08,5.27l.59-6c.43,1.21.71,2.46.94,3.78l.08.49.04.26.21-.07.86-.26,1.69-.47c-1.1,1.57-2.27,3.16-3.49,4.78,2.31.19,5.34-.88,8.22-2.32,2.91-1.46,5.64-3.29,8.03-4.91,0,0,.01,0,.02,0,.2.51.46.94.84,1.23,4.93-1.53,10.2-4.2,12.91-3.72,1.56-1.25,2.96-1.99,4.28-2.49.11,0,.25.03.33,0,1.18,0,1.95-.33,2.52-.83.3-.07.6-.15.9-.21,2.43-.58,4.79-1.29,6.34-4.07-1.38,2.76,1.2,2.95,5.01,1.68,3.78-1.24,8.27-3.59,10.24-5.39-1.37,1.9,4.04.05,2.63,2.5,1.35-.48,2.69-1.04,3.83-1.59.29-.14.57-.28.84-.42l.41-.28c.26-.2.49-.4.69-.6.81-.82,1.09-1.75.44-2.72,4.23,1.72,6.69-1.26,9.09-3.06,1.78.07,3.44.41,4.59.19l-1.8,1.67c1.08-1,2.13-1.38,3.18-1.77l-.06-.05c1.88-1.32,3.72-2.59,5.55-3.82.47-.15.98-.26,1.58-.3.31.25.05.66-.23.95,4.41.51,2.9-1.98,3.9-4.07.82-.52,1.63-1.01,2.44-1.51.24,1.24,1.6,1.86,2.48,1.75.02.28.09.56.25.89,6.53-4.49,9.38-9.52,16.59-11.64.38.45.55,1.03.78,1.52-.36.55-.78,1.1-.91,1.45.43-.31.88-.58,1.31-.85.19.2.44.36.8.4.6-.67,1.16-1.07,1.67-1.3l-.17-.43c.1-.05.2-.11.3-.17l-7.98-19.79c-.1.05-.21.09-.32.14l-.19-.47c-2.22,1.06-4.15-1.15-6.91,1.63.68.55,1.12.85,1.35,1.12-1.61.59-3.2,1.19-4.72,1.88-2.02.14-3.54,1.17-5.05,2.42.19-.29.46-.6.73-.88-1.22.61-3.18.53-2.38,2.29-1.81,1.55-3.83,3.08-6.83,3.58l2.42.13c0,.84-.47,1.32-1.14,1.65-1.36-.09-2.46-.72-2.07-4.2-.71.67-1.44,1.96-.77,3.14-1.4.11-2.07-.47-1.33-2.38-1.82,1.19-2.4,2.11-2.82,2.91-.27-.13-.53-.24-.79-.4.34.72-1.13,1.17-2.39,2.07.14-.49.38-1.02.39-1.73-.97,1.73-1.98,3.45-3.69,4.56l-1.99-.68c-1.29.22-2.19.76-2.88,1.44-2.34,1.51-4.25,3.46-6.42,5.1-.37-1.03-.88-1.82.95-3.53-1.67.59-3.29.82-2.85,2.08-.67-.4-1.67.67-2.6,1.61-.43.77-1.13,1.55-1.65.76-.13.5-.19,1.3-.4,2.01-.22.04-.41.11-.65.14.5-4.68-2.74-.45-4.35-3.73l-3.19,2.36.61.34-2.09,3c.6-.47,1.62-1.74,2.4-2.83l1.13.61c-2.57.92-4.29,3.41-6.52,4.24.09-.33.26-.74.63-1.33-.53.29-1.08.6-1.64.92l1.24-1.57-5.63,2.85,1.84.02c-1.81.9-3.62,1.73-4.97,2.23,1.33-1.06,1.99-1.69,1.95-1.45.55-1.18-2.74,1.37-6.43,4.02-.79.57-1.59,1.15-2.37,1.69-.1-.4-.18-.81-.26-1.22,1.71-1.03,2.19-.83,3.3-2.02,7.59-5.88,6.54-5.31,4.11-4-1.2.66-2.76,1.51-3.47,1.77-.35.13-.48.11-.22-.17.13-.14.36-.34.71-.62.34-.28.79-.62,1.66-1.19.17-.13.86-.49,1.32-.76.87-.7,1.69-1.22,1.9-1.38.21-.15-.05.01-.52.3-.95.58-2.62,1.67-3.26,1.98-.43.2-.43.1.32-.47,0,0,.81-.52,2.43-1.55-7.07,4.34-5.91,2.54-5.27.72,4.07-1.74,1.61-.32,6.93-3.41.03-.23-1.98.87-3.98,1.91-1.99,1.04-3.95,1.98-3.42.99,3.32-2.1,6.67-4.75,11.16-6.7-.35.49-.66,1.01-1.03,1.45,3.47-1.9,3.64-2.18,3.34-2.34-.32-.14-1.1-.2-.32-.77l2.26-.74c.05-.1.06-.2.04-.26-.23-1.11-4.15-.69-1.78-4.11l-1.51.3c-1.45-1.23-.47-1.83.46-2.12.96-.37,1.96-.43,1.22-2.09,1.31.26,2.57.63,3.79,1.07-.02-.99.26-3.46.45-5.82.14-2.47.37-5.09.9-7.1,1.63,3.24.98,8.43.94,11.94,1.23-2.06,3.29-7.42,2.06-9.29-.05,1.01.3,2.49-.63,3.09-.77-1.95-1.11-3.91-1.03-5.89,0-2.02.42-4.05,1.29-6.16,3.38,1.72,4.89-.96,6.23-4.3,1.47-3.29,2.47-7.25,5.79-8.17-.62-8.76,4.8-16.1,5.22-26.18-6.01,2.99.03-2.89-5.96-2.69-.23-2.2-.09-3.04.3-3.23l-.27.44c.13-.19.2-.3.31-.47h-.02c1.26-2.2,2.33-4.5,3.5-6.86,1.7-1.72,1.35,2.2,2.69,1.99.36-5.23,2.49-2.22,4-5.84-2.18.83-2.92-1.71-2.57-4.7-.72,1.46-1.49,2.91-2.43,4.35-1.66-3.49-.84-5.04.3-6.76,1.06-1.67,2.11-3.47.1-6.86l2.14,2.02c-.69-1.84-1.38-5.2-2.55-8.45-1.16-3.24-2.71-6.38-5.58-7.39.49-.78,1.83-2.03,2.69-.6-1.6-8.72-10.47-16.57-10.08-23.52l1.59.06c-.96-1.3-3.54-1.52-2.88-3.86.59-.13,1.58.05,1.4-.66-.77-.59-3.87-2.89-3.88-5.05l2.19.97c-1.33-8.16-8.41-9.76-11.91-15.42,3.93-1.68,2.86-7.86,2.36-10.91l.6-.14c-2.91-8.47-8.88-12.65-13.03-19.9,1.29-3.1.88-7.22-.14-11.61-.49-2.2-.71-4.45-.99-6.66-.22-2.21-.39-4.36.19-6.27-.67,1.22-3.33.23-3.89-1.1.71-1.83-3.44-4.8.52-4.73l-.02.64c3.56-1.58,2.77-4.94,2.89-7.69l-5.14-.66c.95-.91,1.63-1.88,2.09-2.89.55-1,.99-2.03,1.24-3.1.52-2.14.47-4.44.38-6.7.17-2.24.3-4.43.84-6.18.51-1.77,1.74-3,3.61-3.42-.62-2.09.01-4.23-.38-6.34l2.52,1.14c2.55-4.28,3.91-6.26,6.32-11.91.35.69.68,1.36,1.07,2.05,1.89-2.75-4.54-7.82-2.85-10.83l4,1.49c1.81-2.53,4.23-4.59,6.6-6.66,1.16-1.05,2.17-2.2,3.04-3.48.91-1.26,1.6-2.7,1.97-4.48.37.49,1.11,1.44.56,2.29,1.96-2.2,9.89-5.9,5.26-9.35,2.48,2.6,5.07-4.02,6.78-7.52l1.29,2.44c.11-4.48-.38-5.31,2.33-8.63.88-.23,1.69.84.99,1.29,2.64-.91.35-3.45,4.22-4.51l-.23,2.28c2.86-1.74,2.1-2.38,2.58-5.07,1.24-2.05,5.84-2.9,7.52-.99-.38-1.51.24-4.16,2.34-4.54.69.68.34,1.54.16,1.96,5.71-1.2,5.98-6.73,10.64-6.15.46.78.89,1.08,1.29,1.2-4.03,1.88-7.28,3.43-7.08,3.09,1.19,2.2,4.52,1.01,3.63,5.34.8-1.47,1.82-3.67,3.13-5.58,1.32-1.88,2.95-3.38,4.78-3.57.25.15.49.3.77.6l-.21.41c.82-.1,1.38-.61,1.83-1.28,1.19-.05,1.97-.03,2.97-.4,1.18,1.78,4.2-.53,5.92-1.05-1.13-2.51,1.27-2.92-1.63-4.27.35.09-.21.4-1.29.97-.22.18-.51.33-.61.55.01-.08.02-.17.03-.27-1.07.52-2.48,1.17-4.1,1.86.79-1.82,1.76-3.48,4.18-2.82.22-2.01.56-4.04.81-5.04,3.75,2.7,8.9,2.99,10.31,5.06,4.72-3.24,12.03-4.91,14.09-10.77,1.38-1.06,2.17.94,2.96,1.57-.76.74-1.83.95-2.11,1.79,2.71-2.15,8.98-2.9,8.88-6.56,4.32.61-1.42,3.77,3.83,1.86l-.47,1.25c5.95,1.56,9.72-1.62,13.83-4.58,4.09-2.97,8.48-5.74,15.16-3.18-.91-.3-1.36-.43-1.65-.99,14.26.72,27.93-7.74,42.47-4.89,4.07.4,4.13-1.95,6.21-4.07l1.33,2.77,3.51-4.04c2.69-1.72,5.51-.43,8.59.49,3.06.9,6.49,1.39,9.63-2.01l-1.54-1.62c2.82-.36,7.95-3.97,8.36-1.75.14-.46.06-2.24,1.48-1.75l.72,1.36c1.81-1.82,3.52-3.68,5.02-5.68,2.59-.98,3.29.31,4.2,1.43.88,1.04,2.12,2.06,5.76-.89,1.13-1.34,2.07-3.94,2.31-6.06.25-2.16-.05-3.75-.82-3.61ZM8.46,327.28c.36.51.7.76,1.03.91.09.44.2.9.44,1.47.11.28.24.55.4.83-.9-.85-1.63-2.03-1.87-3.21ZM119.24,394.93c2.51-1.53,5-3,7.48-4.38,1.24,3.82-6.68,3.87-6.6,6.97-1.05.03-1.28-1.23-.89-2.6ZM116.38,374.93s0,0,0,0c-.05.04-.1.08-.15.13l.15-.14ZM116.7,52.48c.12-.77-1.83-.39-3.28-.55.94-.35,2.05-.91,3.22-1.51.67.74.8,1.73.06,2.06ZM120.81,48.36s-.02-.05-.02-.05c.74-.41,1.37-.76,1.77-.97-.36.21-.87.51-1.75,1.02ZM136.19,61.39c0-.1,0-.26,0-.36.09.53.15,1.03.07,1.45-.95.81-1.52.46-1.89,0,.5-.26,1.08-.59,1.81-1.09Z"/>
    </g>
  </g>
</svg>