<?xml version="1.0" encoding="UTF-8"?>
<svg id="Capa_2" data-name="Capa 2" xmlns="http://www.w3.org/2000/svg" xmlns:xlink="http://www.w3.org/1999/xlink" viewBox="0 0 530 431.8">
  <defs>
    <style>
      .cls-1 {
        fill: none;
      }

      .cls-2 {
        fill: #580e0e;
      }

      .cls-3 {
        clip-path: url(#clippath);
      }
    </style>
    <clipPath id="clippath">
      <rect class="cls-1" width="530" height="431.8"/>
    </clipPath>
  </defs>
  <g id="Capa_1-2" data-name="Capa 1">
    <g class="cls-3">
      <path class="cls-2" d="M530.3,112.8c0-.6-.1-1.1-.2-1.7-.2-.7-.4-1.4-.7-2.1-.3-.7-.9-1.5-1.5-2.2-.6-.6-1.3-1.2-2.1-1.7-.7-.3-1.4-.6-2.1-.9-1.2-.3-2.4-.4-3.1-.3-.4,0-.9,0-1.2.1s-.6.1-1,.2c-.7.1-1.2.3-1.7.4-.6.1-1,.3-1.5.5s-.9.4-1.4.5c-.4.2-.9.4-1.2.6-.4.2-.7.4-1.1.5-.3.1-.9.4-1.3.7-.5.3-.9.5-1.4.8-2.7,1.8-4.3,3.9-5.7,5.9-3,3-5.5,6.9-7.6,11.3s-4,9.5-5.6,15.1c-.3,1.9-.5,3.8-.8,5.9-.5.4-.9.8-1.4,1.3-4.6,4.1-9.8,8.4-13.9,11.8-2.3,1.9-4.6,3.7-6.9,5.4-2.6,1.1-5.9,2.6-9.8,4.2-1.3.5-2.6,1-3.7,1.4-.2,0-.5,0-.7-.1-2.1.4-4,.6-5.7.7-.4,0-.8.1-1.2.1h-3.5c-.1,0-.2-.1-.4-.1-.1-.1-.2-.1-.4-.1l-.5-.2c-.7-.8-1.6-2-2.5-3.3-1.7-1.5-3.4-3.6-5-5.8-1.6-2.2-3.2-4.6-4.7-7-3-4.8-5.8-9.7-8.7-13.6-1.6-3.4-3.4-6.6-5.2-9.6-1.8-4.4-3.3-8.6-4.7-12.8-1.5-4.3-3.5-9.3-4.3-13-.3-1.5-.6-3-.9-4.5,2.7-3.8,4.8-7.3,6.5-10.7,1.8-3.4,3.1-6.7,4.1-10,1.3-2.7,2.4-5.8,3-8.9.3-1.6.4-3.2.4-4.8-.1-1.6-.4-3.3-1-4.9-.3-1.6-1.2-3.7-2.9-5.2-1.7-1.6-3.8-2.5-5.6-2.8h-1.2c-2.9,0-6.3.5-9.7,2.3-4.2,2.2-7.6,6.3-9.2,10.4-1.8,4.1-2.4,8.2-2.7,12.1-.4,7.4.7,14.4,2.2,20.8-1.2,1.5-2.3,2.9-3.1,4.1-.4.5-.7.9-1,1.4-1.9.1-6.5,4.1-14.3,11.4-1.7,1.6-3.2,3-4.6,4.4-.5.2-1,.3-1.5.5-3.7,3.7-6.5,6.1-9.4,8.3-2.4,1.8-5.3,4.1-7.2,4.8l-.2.1c-1.7.5-3.3,1-5,1.2-1.6.3-3.3.5-4.9.6-3.7.3-7.5-.4-11-1.6-1.7-.6-3.5-1.4-5.1-2.4-1.7-1-3.3-2-4.9-3.2-3.2-2.4-6.1-5.3-9-8.3-2.8-3.1-5.5-6.3-8-9.7-.6-2.8-2.6-7.6-5.8-15.1-2.4-5.6-4.3-9.8-5.8-12.5-1.4-6.2-2.4-12.4-3.2-18.9-1.1-3-2.1-5.7-3-8.4,1.5-4.2,2.7-8.7,3.6-14.3.3-2.1.4-3.5.4-4.5.6-2.3,1.2-4.7,1.6-7.4.7-3.9,1-8,1.1-12.1,0-2.1-.1-4.1-.4-6.3-.2-1.1-.4-2.1-.7-3.3s-.7-2.3-1.5-3.7c-.2-.4-.4-.7-.7-1.1-.3-.4-.6-.8-.9-1.1-.4-.4-.9-.7-1.3-1.1-.4-.3-1.1-.6-1.7-.8-.5-.3-1-.4-1.5-.5-.3-.1-.5-.1-.8-.1h-.7c-.8,0-1.6,0-2.5.2-.4.1-.8.2-1.2.4s-.8.3-1.1.5c-.8.4-1.4.8-2,1.3-2.3,2-3.5,4.3-4.4,6.4-.1,0-.2.1-.3.1-.1.1-.2.1-.4.3-.3.3-.6.8-1,1.5-.3.7-.6,1.2-.8,1.9-.2.6-.4,1.3-.7,2.3-.2,1-.5,2.2-.7,3.3-.1.4-.1.8-.2,1.1-.1,1.2-.3,2.4-.3,3.5-.1,1-.1,2.1-.1,3v.6c.1,2.2.2,3.2.4,4.9,0,.1,0,.3.1.4.1.5.2,1.1.3,1.5q0,.1.1.2c.3.9.5,1.2.7,1.4,0,.4.1.8.2,1.2.1.6.2,1.1.3,1.6.7,5,1.2,9,1.5,12.8.3,3.5.4,6.8.5,10.1-1.9,5-3.8,10-5.9,14.8-.6.6-1.5,1.9-3,4.6-4.5,8.1-7.1,14.2-10.2,20.8-.3.6-.9,1.5-2.1,3.4-1.9,2-4.2,4.2-6.9,6.6-1.3,1.9-2.9,4-4.2,5.9-2.3,3.3-4.7,6.5-7.5,9.4s-5.9,5.4-9.7,7.2c-1.5.7-4.1,2.4-6.2,3.5-4.3,2.2-7.3,3.3-8.9,4.2-1.6.9-1.8,1.6-.5,2.1-.7.3-1.5.5-2.2.7s-1.5.4-2.3.6-1.5.4-2.3.5l-1.2.2-.6.1h-.5c-.7-.4-1.5-1.1-2.9-2.7-.5-.2-1-.5-1.6-.8-.5-.3-1.1-.6-1.6-1-1.1-.7-2.2-1.5-3.3-2.3-2.2-1.6-4.3-3.4-6.4-5.1-4.2-3.4-8.1-6.6-11.8-8.9-.8-.5-1.7-1.2-2.6-1.9-1.2-1.3-2.4-2.7-3.7-4l-.8-1c-4.8-6.5-9.2-11.7-13.5-16.6-2.4-4.4-5.7-9.9-8.7-15.5-2.4-4.4-4.6-8.7-6.9-12.9.2-4.1.1-8.3-.4-12.5-.3-2.7-.8-5.4-1.5-8.2-.8-2.8-1.7-5.7-3.5-8.8-.3-.6-.8-1.1-1.1-1.7-.5-.6-.9-1.1-1.5-1.7-1.1-1.1-2.8-2.2-4.9-2.8-2.1-.5-4.3-.2-6,.4-.4.2-.8.3-1.1.5-.4.2-.6.3-1.3.7-.6.4-1.1.8-1.5,1.3s-.9,1.1-1.1,1.6c-.2.5-.5,1.1-.7,1.5-.1.5-.3.9-.4,1.4-.1.8-.2,1.7-.2,2.3v1l.1.9c.1.6.2,1.2.2,1.7.4,2.2,1,4,1.6,5.8.2.5.5.9.7,1.4.5,2.3,1.3,4.7,2.4,7.4.9,2.2,2.1,4.8,3.2,6.9.3.6.7,1.2,1,1.9,1,1.8,2.1,3.6,3.2,5.4-.1,3.5-.4,7.1-.8,10.6-.6,5-1.3,9.9-2.1,14.6s-1.6,9.5-2.5,14.3c-1.3,7.6-4.3,16.5-9.4,23.3-4.1,5.5-8.3,10.6-12.8,14.7s-9.2,7.1-14.6,9h-1c-.2,0-.5,0-.7-.1s-.5-.2-.7-.3l-.6-.3c-.2-.1-.5-.2-.7-.3-1.9-1-4-2.3-6-3.6-4-2.7-8-5.7-11.8-8.8-7.1-4.6-13.8-9.2-20.6-14.9-2.5-2.1-4.7-3.9-6.7-5.5-.2-.3-.5-.6-.7-.9-.4-1.5-.7-2.9-1.1-4.4-1.3-4.6-2.7-9.1-4.7-13.7-.8-1.8-1.7-3.7-3-5.6-.7-1-1.4-1.9-2.6-2.9-.3-.2-.6-.5-1-.7s-.7-.5-1.2-.7-1-.4-1.5-.5c-.6-.1-1.2-.2-1.8-.2h-.4l-.3.1c-.4.1-.9.2-1.3.4-.4.2-.9.4-1.4.6-.5.2-1,.6-1.4.9-.5.4-.9.8-1.3,1.3-.4.5-.8,1.1-1,1.6-.1.3-.3.6-.3.9-.1.3-.1.6-.2.9-.2,1.1-.2,2.1-.1,3.1.3,1.8.8,3.2,1.4,4.4.6,1.3,1.3,2.4,1.9,3.5,1,1.6,2.1,3,3.3,4.4.4.6.8,1.2,1.2,1.8,1.2,1.8,2.6,3.7,4.2,5.7v.3c.5,5.6,2.4,15,4.2,19.6.5,1.3,1,2.4,1.5,3.4.1.7.2,1.4.3,2.2.8,5,1.7,8.9,2.5,11.9.1,2.9.4,6.2.8,9.8,1,9.4,2,19.1,3.7,28,.2.9.3,1.8.5,2.7.2,9.1,1.3,18.9,2.8,29,.3,2.2.7,4.3,1.1,6.4,0,1.2.1,2.3.1,3.5.4,11.1,1.3,22.1,2.6,33.7.3,2.6.5,5.3.7,7.9l.2,2.9c.5,8.3.2,16.8-1.1,25-.2,1.4-.4,2.8-.7,4.2-.1.7-.2,1.3-.3,2s-.3,1.3-.4,1.9c-.2.8-.5,1.5-.7,2.3-1.4,4.6-3.1,9.7-4.6,13.8-.4,1.3-.8,2.4-1.2,3.5-.5.9-1,1.7-1.5,2.6-.8,1.2-1.6,2.4-2.4,3.6-1.3,1.8-2.7,3.6-4.2,5.2-.5.6-1,1-1.5,1.6-1.7,1.6-3.2,2.8-4.5,3.8-.8.5-1.5.9-2.1,1.3-.6.3-1.2.7-1.6,1-1.1.6-1.8,1-1.9,1.4-.5.5-.4.9.4,1.2.4.1.9.3,1.5.3.6.1,1.3.1,2.1,0,1.6-.1,3.6-.7,5.8-1.8.1-.1.3-.1.4-.2l-.1.1c-.2.1-.4.2-.6.3l.3-.1c.1-.1.2-.2.3-.2.2-.1.3-.2.4-.3,1.6-.9,3.3-2.2,4.8-3.5,1.5-1.4,3-3,4.2-4.7.8-.9,1.5-1.9,2.2-2.8.7-1,1.4-1.9,2-2.8,5.3-7.6,8.6-16.4,10.5-25.4,2-9,2.6-18.3,2.2-27.7.4-4.7.7-9.6.6-14.9-.1-11.9-1.1-23.3-3.2-33.5-.3-4.6-.6-9.2-.9-13.7-.6-11.7-1.7-22.7-3.6-33.8-.1-.5-.2-1-.2-1.5.3-1.9.6-3.6.8-5.8.4-4.5-.5-12.8-1.9-18.6-.2-2.7-.5-5.8-.9-8.8-1-7-2.2-14-3.5-20.9,2.1,1.6,4.1,3,6,4.2h0c3.7,3.2,7.4,6.3,11.2,9.3,2.2,1.6,4.4,3.1,6.6,4.5,2.7,2.4,5.7,4.9,9.9,7.5,1,.6,2,1.2,3.1,1.8.5.3,1.1.6,1.6.9l.9.4c.3.1.7.3,1,.4,1.4.5,2.9,1,4.4,1,.7,0,1.5-.1,2.3-.1.7-.1,1.2-.1,1.9-.2,4.8-.6,9.6-2,14-4.3,2.5-1.6,4.8-3.4,6.9-5.3,2.1-2,4-4.1,5.8-6.3,3.5-4.5,6.5-9.3,9-14.5,4.3-6,7.7-12.9,10.1-20.3,2.4-7.4,3.7-15.1,4-22.9.1-2,.2-4,.3-6,2.2,3.7,4.6,7.3,7.2,10.8,5.4,7.3,11.5,14.3,18.6,21l1.7,1.6,2.7,3c3,3.3,6.2,6.6,9.7,9.9,3.5,3.2,7.3,6.4,11.8,9.2,2.3,1.4,4.7,2.7,7.7,3.7,1.4.5,3.1.8,4.9,1h2.6l2-.1c5.4-.4,10.7-1.7,15.6-3.6,7.1-2.3,14.2-6.9,20.4-12.6,4.5-4,8.5-8.3,11.9-12.7.3.6,1.3.1,3-1.6s4.2-4.6,7-8.7c1.7-2.4,3.7-5.6,4.5-7.3,4-9,8.6-16.2,12.9-24.1.4-.7.7-1.4,1.1-2.2,1.6,4.2,3.4,8.2,5.4,12.5,1.3,4.8,2.8,9.8,5,15.7,5.3,8.1,11.4,15.5,18.6,21.6.9.9,1.9,1.8,3,2.7,1.9,1.6,5,4.9,8,7.1.5.3.9.7,1.4,1s1,.6,1.5.9c1,.6,2.1,1.2,3.2,1.8,2.3,1.1,5,2.3,8.4,3.1.8,0,1.7-.2,2.4-.3.8-.1,1.5-.2,2.3-.4,2.3.3,4.7.4,7.1.3,2.4-.2,4.7-.5,7-1.1,4.5-1.1,8.8-2.9,12.8-5,8-4.3,15.1-10,21.4-16.4,2.2-1.9,4.1-4,6-6.4,1.6-1.4,3.2-2.9,4.8-4.4.7-.6,1.3-1.3,2-2,.5,1.6,1,3.2,1.6,4.8,2.1,6,4.8,11.9,7.1,17.3.4.5.7,1,1,1.5,2,4.4,4.4,8.9,7.2,13.3,2.2,3.5,4.8,8.7,7.7,12.8,1.7,2.4,3.4,4.7,5.4,7s4.1,4.6,6.8,6.9v-.1c.8.8,1.6,1.6,2.6,2.5,1.7,1.4,4.8,3.4,8.2,3.9.7.1,1.5.2,2.2.3.7,0,1.3.1,2,.1,1.3,0,2.7,0,4-.1,2.7-.2,5.3-.7,7.6-1.4,3.3-.9,5.8-2.1,7.7-3.2,1.9-.7,3.9-1.6,5.8-2.6,1.7-.9,3.3-1.9,4.9-2.9,1.6-1,3-2,4.2-3,2.3-1.3,4.6-2.7,6.9-4.3-.4,2.3-.6,5.5-.9,8.1-.5,3.8-1,7.5-1.3,11.1-.2.6-.4,1.2-.6,2-.2.8-.4,1.7-.6,2.7-.1.4-.1.8-.2,1.2-.2,1-.3,2.1-.5,3.2-.1,1.1-.2,2.3-.3,3.4v.6c-.6,3.1-.5,5.1-.3,7.9-.2,3.4-.3,7-.1,10.5v.8c0,.8-.1,1.6-.1,2.4-.1,1.8-.1,3.5-.1,5.3,0,.5,0,1-.1,1.5-.1,1.6-.2,3.2-.3,4.8v.2c0,.3-.1.7-.1,1-.4,3.1-.7,5.7-1,8.6-.5,5-.7,10.7-.7,16.6.1,6.4.7,11.7,1.2,17.4.4,3.9.8,7.8,1.3,11.7.9,7.3,1.9,14.7,3,22,.1,2,.2,4.2.5,6.6.1.9.2,1.8.3,2.7-.8,3.5-1.1,6.1-.9,9.4.2,3.3.8,7.4,2.2,14.1.4,2.4.9,4.9,1.5,7.3.2.6.3,1.2.5,1.7.1.3.2.5.2.8l.1.4c0,.1.1.3.1.3.2.3.4.6.6.9v.1c-.1.4-.2.8-.3,1-.5.6-.9.9-1,1.4,0,.2.1.6.3,1.1l.1.2.1.1h-.2c-.1,0-.2,0-.3.1-.6-.6-1.1-1-1.4-1.2-.4-.2-.6-.2-1.1-.2-.2,0-.5,0-.9-.1-.2,0-.4-.1-.6-.1h-.1l-.3-.1c-.2-.1-.4-.2-.6-.3-.4-.2-.8-.4-1.3-.6-3.6-2.3-11.3-6.5-16.4-9.9-11.2-7.4-24.6-13.6-38.1-19.1-12.3-5.1-25.2-9.4-37.8-12.8-3.7-1.4-8-2.8-12.2-3.8-4.3-.9-8.5-1.7-12.1-2.1-2.3-.3-5-.6-8-1.1-2.9-.5-6.1-1.1-9.3-1.7-3.2-.5-6.4-1.1-9.5-1.7s-6-1.2-8.7-1.6c-7.1-1.1-14-2.3-20.9-3-3.4-.4-6.9-.8-10.3-1.1-3.5-.3-7-.6-10.5-.7-1.9-.5-4.5-.9-7.3-1.1s-5.8-.2-8.5,0c-2.5.2-4.9.5-7.4.7-7.7.2-15.4.4-23.1.9-1.3-.1-2.7-.1-4.1-.2-1.4,0-2.9,0-4.3.1-.4-.1-.9-.3-1.3-.4-1.5.2-4.3.4-4.3.6v.2c-2.9.2-5.8.5-8.6.9-1.1-.2-2.1-.3-3.2-.5-1.5-.2-3.6-.3-5.9-.4-2.4,0-5,.1-7.5.2-2.3.1-4.6.3-6.7.6-2.1.3-4.1.6-5.9,1-.5.1-1,.1-1.5.2l-5.4,1c-2.6.6-4.9,1.2-6.9,1.8-2.1.6-4.3,1.3-6.5,2s-4.6,1.3-6.9,2c-2.7.8-5.3,1.5-8.1,2.3-2.9.9-6,1.6-8.9,2.6-3.4,1.1-6.9,2.2-9.8,3.4-2.3.5-4.9,1.1-8.3,2.1-1.7.5-3.6,1-5.8,1.7-2.1.7-4.5,1.4-7.2,2.3-1.7.5-3.4,1.4-5.2,2.1-.5.3-.9.6-1.4.9-.4.1-.8.2-1.2.4-2.1,1.4-4.1,2.9-6.2,4.4-3.1,1.8-5.6,3.1-8.8,4.3-1.6.6-3.4,1.1-5.5,1.8-2.1.7-4.6,1.3-7.5,2.3-1.2.4-3.2,1.3-4.8,2-3.3,1.6-6,3.3-8.3,4.7-3.3,1.6-6.5,3.1-9.7,4.7-4.5,2.4-8.1,4.2-11,6-1,.6-2,1.2-2.9,1.8-1.1.7-2.2,1.4-3.2,2.1-2,1.4-3.7,2.7-5.3,4-2,1.3-4,2.7-6.2,4.2-1,.7-2.1,1.4-3.1,2.2-3.9,2.2-7,4.3-10.7,7-.5.3-.9.7-1.4,1.1l-.4.3-.2.1s-.2.1,0,.1c.3.1.6.2,1,.3,1.3.4,2.7.9,4.3,1.4,3.1,1,6.8,2.1,11.2,3.6,4.2,1.3,8.5,2.7,12.8,4.1.2.1.5.2.7.4,2,1.1,4,2.1,6,3.2,1.1.6,2.2,1.1,3.4,1.7.4.2.8.4,1.2.6.4.2.8.4,1.2.6,7.3,3.4,18.9,6.3,21.2,5.3.8-.3.4-1,.6-1.6,2.8,1.1,5.2,1.8,5.7,2.1,2.3,1.5,6.4,2.6,10.7,3.7,2.1.5,4.3,1.1,6.3,1.7,1,.3,2,.6,2.9.9.9.3,1.8.6,2.5.9,4.6,2,9.9,4.1,15.8,6.3,4.7,1.9,17,3.5,20.3,3.3,1.3-.1,1.6-.6.5-1.2-.2-.1-.5-.2-.8-.3.2-.1.2-.2.4-.3,3.5.8,7,1.5,10.5,2.3,6.7,1.2,13.5,2.3,20.1,3.2.3.5.6,1,1.2,1.5.6.5,1.6,1.1,2.5,1.7,6.8,1.7,13.2,2.6,19.5,3.2,1.6.1,3.1.3,4.7.4s3.1.2,4.7.2c3.1,0,6.3,0,9.5.1,1.3-.4,1.8-.8,2-1.2,3.4.5,6.9.9,10.7,1.2,4.2.3,7.6.2,11.2.2h-.4,5.9c1.1.1,2.1.1,3.2.2,1,.1,2.1.2,3.1.3,1.5.2,2.9.4,4.3.6.1,0,.3,0,.4.1,4.8.8,11.6,1.1,18,1,1.3.6,2.7,1.2,4.1,1.8,3.4,0,6.4-.2,9-.5,2.6-.2,4.7-.5,6.5-.8,3.2.4,7.4.5,11.8.5,4.4-.1,8.8-.6,12.2-1.1,2.9-.5,5.1-1,6.6-1.4,2.7,0,5.4,0,8.3-.2,9.3-.7,17-2,23.9-3.5,7.7-.2,16.7-1,25.8-2.2,9.1-1.5,18.1-3.4,26-5.5,6.8-2.1,10.4-4.2,8.9-5.2,1.4-.4,2.8-.7,4.1-1.2,10.9-3.4,11.4-5.3,9.3-6.6-1.3-.8-2.1-1.8-4.3-2.4-1.1-.3-2.8-.4-4.7-.4.2-.2.3-.4.2-.6-.6-1.1-6.3-1.5-14.8.1l-2,.4-2,.3c-6.9,1-14.2,2.6-19,4.2-.4-.1-.8-.1-1.3-.2-.8-.1-1.6-.1-2.5-.1h-2.9c-2.1,0-4.3.2-6.7.4-4.8.5-10,1.2-14.7,2.3-4,.7-7.9,1.5-11.7,2.3-.1-.1-.2-.3-.3-.4-.6-.8-2.7-1.2-6.1-1.3-1.7-.1-3.7-.1-6.1,0-2.4.1-5.1.1-8.1.2-1.6.8-3.2,1.6-4.8,2.4-.5,0-.9.1-1.2.1-.9,0-3.1.1-3.4.1-1.7,0-3.3.1-4.9.1s-3.3.1-4.9,0c-7.7-.1-15.9-.1-23.8.2-1.5,0-3,0-4.4.1-2.1,0-4.1,0-6.2.1-2,.1-4,.1-6,.2-.3-.2-.5-.4-.9-.5-1.4-.1-2.8-.3-4.2-.4-1.4-.1-2.8-.3-4.2-.5-2.8-.3-5.5-.7-8.3-.9-2.8-.3-5.6-.5-8.5-.6s-5.9,0-8.9-.1c-2.1-.2-4.2-.4-6.4-.5l-15.7-.9-15.7-1.5c-1.8-.6-5.4-1.4-9.1-2.1-3.7-.8-7.5-1.4-9.8-1.5-3.3-.2-6.4-.2-9.4-.3-1.6-.4-3.3-.8-5.1-1.2s-3.7-.9-5.7-1.3l-15-3-3.8-.7-3.7-.9-7.4-1.8c-2.1-.8-4.7-1.5-7.3-2.2s-5.4-1.1-7.8-1.5c-2.2-.3-4.1-.5-5.9-.6-.9-.5-2-1-3.4-1.5-2.7-1-5.4-1.8-7.9-2.4-2.5-.6-4.9-1-7.1-1.3-1.3-.2-2.7-.4-4.8-.8,0,.3-.3.5-.1,1-.7-.4-1.5-.8-2.5-1.2-1.3-.6-2.9-1.3-4.6-1.9-2.8-1.6-5.6-2.8-9.4-4-.2-.1-.3-.1-.5-.2l-.2-.1c-.1-.1-.2-.1-.4-.2-1.3-.6-2.4-1-3.7-1.5-.6-.2-1.3-.4-2-.6l-1.1-.3-.6-.2-.3-.1c-.1,0-.3,0-.2-.1.5-.5,1.1-1.2,1.8-1.9l1.1-1.1.7-.6.4-.3q.1-.1.2-.2l.6-.4c.6-.4,1.2-.7,1.9-1.1,3-1.7,6-3.1,8.7-4.4,2.9-1.3,5.2-2.3,7-3.2,1.8-.9,3.3-1.5,4.5-2.2,2.5-1.4,4.2-2.8,7-5.1.3-.1.5-.2.7-.4,2-.7,4.1-1.5,6.5-2.5,1.6-.6,3.3-1.3,5-2,1.6-.6,3.2-1.3,4.7-1.9,1.7-.7,3.2-1.3,4.9-2,1.9-.8,3.7-1.6,5.5-2.4,1.7-.4,3.5-.9,5.4-1.5,2-.6,4.1-1.3,6.3-2.1,5.1-1.7,10.2-3.3,15.4-4.8,6.6-1.9,13.1-3.6,19.7-5.4,4.6-1.3,8.4-2.5,11.9-3.8,1.2-.1,2.5-.1,4.3-.3,1.7-.2,3.4-.5,5.1-.8,1.7-.3,3.5-.7,5.2-1.1,3.6-.9,6.7-1.7,10.6-2.5,3.7-.7,7.6-1.3,11.4-1.7,7.9-.8,15.3-1.1,23.2-1.4,1.3,1.7,10.4,2,20.5.8,2.4-.2,4.9-.6,7.1-.9,2.3-.3,4.3-.6,5.7-.9.6-.2,1.2-.3,1.8-.5,3.6.2,7.4.3,11.2.5.8.1,1.8.2,2.5.2.1,0,.2-.1.3-.1.5,0,1,0,1.4.1,4.7.2,9.5.4,14.2.8,1.2.1,2.4.1,3.5.2,1.2.1,2.4.2,3.5.3,2.4.2,4.7.4,7,.6h.2c1.4.3,2.7.6,4.1.9,1.4.3,2.7.6,4.1,1,2.8.7,6.1,1.3,9.1,1.6,3,.3,5.7.3,7.5.1,1.2-.2,2.2-.4,3.3-.6,2.2.7,4.5,1.3,7.5,1.9,2,.4,3.8.8,5.7,1.2,1.8.4,3.6.7,5.4,1,1.8.3,3.5.5,5.2.8,1.7.2,3.4.6,5.1.8.3.1.5.2.8.3,1.6.5,3.2.9,4.8,1.4,1.1.3,2.2.6,3.3.8.3.1.6.1.9.2.2.3.6.6,1.2.9,1.5.8,7.4,1.8,7.5,1.2,0-.1-.2-.3-.4-.4,5.2,1.5,10.3,3.5,15.3,5.3,5.8,3.2,15.8,7.2,24.6,11.1,12.2,5.5,25,11.6,37.2,18.1,3,1.7,6.1,3.3,9.2,5,1.5.9,3,1.7,4.5,2.6l2.8,1.5c1.5.8,2.9,1.7,4.4,2.5,11.6,7,22.9,13.6,32.2,18.8,1.2.7,2.5,1.4,3.9,2.2.3.2.7.4,1,.6l.5.3.3.1.2.1c.5.2,1,.4,1.6.7-.9-2.5-1.8-5-2.7-7.4-.9-2.5-1.8-4.9-2.6-7.3-1.6-4.6-3.1-8.7-4.1-11.6-.5-1.7-.9-3.4-1.4-4.9-.4-1.5-.7-2.9-1-4.4-.7-2.8-1.1-5.4-1.5-7.8-.2-1.2-.4-2.4-.6-3.6,0-.3-.1-.6-.1-.9l-.1-.4v-.2c0-.3-.1-.6-.1-.9-.2-1.2-.3-2.3-.5-3.4-.9-4.7-2.4-10.9-3.4-13.6-.1-.2-.1-.3-.2-.4.1-6.3-.7-15.8-2.1-24.2-.1-.5-.2-1-.3-1.5-.1-.9-.2-1.8-.4-2.6-.1-1.1-.3-2.3-.4-3.4-.3-10.6-.3-15.5-1.1-19.6-.1-9.1.1-18,.5-26.8.4-9.8-.5-22-1.9-24.3,0-.1-.1-.1-.1-.1,0-2.3.1-4.6.1-6.9.1-2.8.5-6.1.5-8.4v-4.5h0c.3-9.3,1.9-15.7,3.1-21.7.5-7,1-13.1,1.3-18.4.2-.8.4-1.7.6-2.5,1.2-4.1,2.1-6.1,2.2-10.5,0-.4,0-.7-.1-.9.1-.8.2-1.6.4-2.3,2.7-2.4,5.6-5.4,8.4-8.9,4.4-5.5,8.5-11.1,12.3-17.9,1.4-1.8,2.8-3.7,4.2-6.6.4-.8.8-1.7,1.1-2.8.2-.5.3-1.1.5-1.7.1-.3.1-.7.2-1l.1-.5c0-.2,0-.4.1-.6,0-.6.1-1,0-1.5ZM278.4,7.8h0q0-.1,0,0ZM405.6,68.1c.3-.2.6-.4,1-.5,0,.3-.1.7-.2,1-.7,1.8-1.7,3.6-2.8,5.3-.5.8-1,1.5-1.5,2.3.2-2.2.7-4.2,1.4-5.6.7-1.2,1.3-1.9,2.1-2.5Z"/>
    </g>
  </g>
</svg>