<?xml version="1.0" encoding="UTF-8"?>
<svg id="Capa_2" data-name="Capa 2" xmlns="http://www.w3.org/2000/svg" xmlns:xlink="http://www.w3.org/1999/xlink" viewBox="0 0 259 432">
  <defs>
    <style>
      .cls-1 {
        fill: none;
      }

      .cls-2 {
        fill: #580e0e;
      }

      .cls-3 {
        clip-path: url(#clippath);
      }
    </style>
    <clipPath id="clippath">
      <rect class="cls-1" width="259" height="432"/>
    </clipPath>
  </defs>
  <g id="Capa_1-2" data-name="Capa 1">
    <g class="cls-3">
      <path class="cls-2" d="M163.4,67.3c10-10.9,40.2-62.2,54.9-31.6,9.8,20.4,1.5,31.8-10.1,48.4,2,1.7,34-21.7,47.6.1,4.8,7.7,2.5,15.6,2.9,24.2-2.6.4-2.6-3.2-3.3-5.1-2.6-7.1-2.5-18.6-12.5-18.9-13.6-.5-32.5,12.1-42.2,21.1-4.2,3.9-5.9,11.1-12.2,12.3-5,.9-9-9.6-17.6-7.5l5.6-8.4c-6-11.2-26.6-4.8-31.8,3.7-1.6,2.6-5.5,14-5.7,17-.4,6.2,3.2,4,5.4,7.7,3.1,5.2,2.5,14.8,6.8,19.4,3.5,3.7,19.6,7.8,24.4,7.4,12.3-1.1,2.1-12.9,2.9-15.6,11.7-6.6,7.3-9.8,7.4-21.7,6.2-1.5,2.6,3.7,3.8,5.6,8.3-3.9,9.1,7.7,14.9,10.3,5.9,2.6,24.5,4.2,29.8-.1s8.5-17.2,15-21.4c3.8,9.9-10.8,26.3-11.3,30.9-.6,5.9,10.9,12.1,12.8,20.9,4.8,23.2-15.3,31.4-35.1,28.6,6.1,12.5,6.8,24.9,1.4,37.8-9.1,21.9-23.3,20.8-38.8,5.1-1.6,20.7-21.5,48.6-39.3,24.3-5.5,22.6-15.9,41-28.1,60.3-1.4,2.1-5.8,1.8-3.7,8.9l-5.6-3.7c1,7.7-.8,12.8-5.6,18.7l46.2-20.2c4.9-1.1,5.3-1.1,7,3.4l20.4-16.7c14.6,9.8-10.4,21-15.2,28.3-.4.6,1.3,2.5.9,2.9-16.4,19.9-35.3,34.3-61.1,40.6-10.2,2.5-31.9,3.6-40.1,8.6-1.9,1.1-24.9,22.4-26.1,24.2-3,4.6-4.1,17.5-13.1,14.7-2.3-.7-2.3-4-3.4-5-.4-.4-8.9.2-10.9-.5-1.8-11.2,4.7-7.7,10.7-10.8,11-5.8,10.6-9.9,15-20.5,8.3-19.9,12.3-40.2,17.5-61,2.9-11.8,10.1-23.4,5.4-36.6,11.1-2.9,16.5,8.6,16.7,17.9.1,6.1-5.7,15.8,2,19.4-.6-7.2,4.6-10.1,10.4-5.7,1.5,2.4,1.3,10.9.7,14-.8,4.7-4,6.4-4.6,10.3l18.9-23.1c16.1-28.6,33.8-59.3,36.2-92.7-19.6,6.1-39.1,11.6-59.2,4.1-7.6-2.8-15.6-6.4-13.4-15.8.4-1.7,6.8-16,8-18.3,3.4-6.4,9.4-10.5,14.1-15.8-28.6-14.2-34.6-35.6-1.8-50.4-18-8.8-35.7-10.6-23.7-35,2.1-4.2,14.4-24.6,16.9-27,5.1-4.8,11.8-6,18-2.5-.3-20.8,13.6-9.8,26.2-7.5.7-17.9-1-36.2,5.6-53.3,1.6-4.2,4-3.7,5-5.2,3.2-4.7,5.9-14.7,14.7-8.8,3.3,2.1,20,22.9,21.8,26.9,5.9,13.2,2.9,24.4,1.6,38.4h0ZM133.4,100.9c18.8-6.3,21.7-30,22.4-47.5.7-15.5,2.3-24.9-7.5-37.5-10.5-13.3-13.6-12.6-19.6,2.8-9.5,25-5.6,58,4.7,82.2h0ZM196.3,85.3c4.5-6.4,24.8-44.7,10.9-47.9-17.5,12.3-31.6,31.2-37.8,51.5l13.4,10.1c.9-.3,12.2-11.9,13.5-13.7ZM127.8,110.2c-2.9-5.5-6.5-10.8-8.4-16.8-3.7-11.6,1.5-23-17.8-17.8-4.5,2.9,2.8,17.3,5.7,20.7,2.1,2.5,18.4,15.8,20.5,13.9ZM106,107.7c-7.6-7.3-11.9-20.1-23.8-23.5-6.3,5.6-24,30.8-21.6,37.9,1.1,3.4,33.1,12.6,38.6,13.8,4.3,1,8.7-.2,12.6.5,3.6.7,6,4.7,10.3,3.7l1.6-19.3c-.9-2.9-14.1-9.7-17.7-13.1ZM193.2,138.3l-3.7-3.7v3.7h3.7ZM121.9,151.7c-.7-.8-19.6-5.3-21.6-5.5-15.9-1.7-52.3,21.5-22.1,33.4,14.5,5.7,17.2-3.3,28.6-7.2,5.9-2,11.2-1.7,16.5-4,1.6-2.5-.4-15.6-1.4-16.7ZM139,145.8c.6,6.5,2.6,10.1,8.4,13l-8.4-13ZM237.5,186.2c14.9-14.7-4.7-37.8-22.8-38.7-3.5-.2-27.3,2.5-28.1,3.7-6.2,9.2,7.2,12.8,12.3,17.8,5.1,5.1,9.2,16.1,14.2,19.5,7.6,5.3,17.8,4.2,24.4-2.3h0ZM140.9,192.5l-3.8-21.4-5.5-16c1.5,10-3,34.8,9.3,37.4h0ZM174.5,164.5c-11.2-.6-21.3-7.5-31.4-1.7-2,2.2,1.9,19.6,4.3,22.2,6.6,6.9,30.5-9.4,27.1-20.5ZM183,173.8c-4.6,2-3,6.4-4.3,8.8-1.8,3.3-5.6,5.4-6.1,9.1-.2,1.8,5.1,32.2,6.1,35,1.1,3.3,11.3,12.2,14.6,13.4,17.3,6.4,18.3-23.2,15.9-34.6-2.9-13.8-19-19.9-26.2-31.7ZM142.6,200.1c-8.9,2.6-16.2-14.1-19.4-14.4-1.4-.2-25,4.7-27.6,5.5-9,2.9-18.6,14.4-21.8,23.2-.5,5.6,17.5,8.3,14.7,17.4l-25-9.5-2.9,8.2c13.7,12.9,35.1,8.6,51.3,3.2,10.6-3.5,23.1-7.8,17.7-20.6h11.2l1.8-13h0ZM161.4,198.1l-5.5-.1c2,9.8-9.9,22.7-10.7,29.2-.6,4.9.9,22.1,1.5,27.6.8,7.3,1.2,10.9,9.3,7.8,19.6-7.5,11.2-49.3,5.4-64.5h0ZM105.4,319.5v-3.7h-1.8v3.7h1.8ZM132.5,334.5v1.9c1.2-.7,1.2-1.3,0-1.9ZM142.8,342c-11.4-.6-18.3,8.8-26.7,13.4-10.9,6-22.5,10.7-33,17.4,2.6,3.9,3.9,2.5,7.5,2,21-3.2,38.2-17.7,52.2-32.8h0ZM49.3,364.4l1.9-14.9-5.6,14,3.7.9ZM103.5,353.2c-12.5-1.4-15.7-3.6-20.6,9.3.9.8,19.9-5.1,20.6-9.3ZM69.9,379.3c4.7.5,6.3-3,5.6-7.5l-5.6,4.7v2.8Z"/>
    </g>
  </g>
</svg>