<?xml version="1.0" encoding="UTF-8"?>
<svg id="Capa_2" data-name="Capa 2" xmlns="http://www.w3.org/2000/svg" viewBox="0 0 302.11 318.08">
  <defs>
    <style>
      .cls-1 {
        fill: #580e0e;
        fill-rule: evenodd;
      }
    </style>
  </defs>
  <g id="Capa_1-2" data-name="Capa 1">
    <path class="cls-1" d="M263.23,204.9c-14.5,26.4-31.2,50.8-46.5,70-15,18.8-28.9,32.7-38.3,38.9-5.2,3.5-9.5,4.6-12.3,4.2l-1.2-.4c-.3-.2-.8-.4-1.4-.8-1.8-1.2-5.9-4.7-11.5-10-27-25.4-92.7-94.4-128.1-159.4C-6.87,91-14.27,37.6,40.23,15.7c40.5-16.4,70.5,3.5,91,28.9,13.4,16.7,22.6,35.7,27.9,47.5,5.3-11.6,21-44,41.6-66.9C215.93,8.4,233.93-3,252.12.7c12.1,2.5,24.7,11.6,36.8,31.1,10.4,16.8,14,37.1,12.7,59,2.7,28.8-6.2,58-20.7,85.2-5.3,10-11.3,19.6-17.7,28.9ZM286.33,45.5c-1.4-3.2-3-6.2-4.8-9.2-10.4-16.8-20.8-25.1-31.2-27.2-15.5-3.2-30.3,7.5-43.2,21.8-23,25.5-39.7,63.4-41.9,68.4-.4,1-1.2,1.7-2,2.1.3.7.6,1.2.8,1.6,1.2,2,.4,4.6-1.6,5.8-1,.6-2.2.7-3.2.4.3,2.5.4,4,.5,4.3.5,2-.5,4.1-2.4,4.9,1.3,3.9,2.7,8,3.9,12.5,13-36.1,30.6-70.2,47.5-90.8,2.5-3,4.9-5.8,7.4-8.2.5-1.2,1.1-2.3,1.7-3.3,6.3-12,14.8-19.4,25.1-19.4,6.7,0,14.6,3.4,23.5,11.6,7.3,3.7,11.3,10.3,12.6,13.3.3.6.5,1.2.8,1.9,2.3,3,4.5,6.2,6.5,9.5ZM131.63,59.6c-2.3-3.3-4.7-6.6-7.2-9.8-12.8-15.8-29.6-29.5-50.9-31.3,3.5.6,7.5,2.5,11.8,6.3,3.9,3.5,8.3,8.7,13,16.4,5,1.9,10.5,4.3,16.2,7.2,6.7,3.4,12.3,7.2,17.1,11.2ZM69.33,18.3c-8-.1-16.7,1.5-26,5.2-14.5,5.8-24,14.1-29.3,24.3-5.4,10.2-6.6,22.3-4.8,35.6.9,7,2.7,14.4,5.2,21.9-3.1-16.7-2.3-34.2,4.1-52.1,6.3-17.6,14.5-25.8,23-28.1,5.3-1.4,10.9-.6,16.6,1.9,0-.1.1-.2.1-.3,1.6-4.1,5.2-7.6,10.3-8.3.3,0,.6-.1.8-.1ZM58.63,186.6c9.5,13.4,19.6,26.5,29.8,38.9-3.1-5.4-6.1-10.9-8.8-16.5-7-7-14.1-14.5-21-22.4ZM155.43,298.3c.9.8,1.7,1.6,2.5,2.4,4.7,4.4,8.9,7.9,10.2,8.9.6-.1,1.4-.5,2.3-1,2-1,4.4-2.6,7.1-4.7,8.7-6.9,20.1-18.9,32.4-34.3,3.5-4.3,7-8.9,10.5-13.7-10.9,11.1-21.2,20.6-29.7,28-3.6,4.4-7,8-10.3,10.6s-6.5,4.3-9.7,5.3c-.8.5-1.4.9-1.8,1.1-1.5.8-3.3.6-4.7-.3-2.8-.2-5.7-.9-8.8-2.3ZM214.53,249.9c13.8-14.1,28.4-31,41.4-49.4,13-23.8,24.2-49.2,30.9-73.9,3.2-12,5.4-23.8,6.2-35.1-1.1-10.9-3.9-21.7-8.9-32.3.2,6.4-.1,13.6-1.1,21.5.3.5.6,1.1.9,1.8,1.4,3.4,2.6,8.9,3.1,17.3.9,14.5-5.8,31.4-14.8,46.9-3.6,6.3-7.6,12.3-11.6,17.8-6.9,21.1-15.6,39.9-24,52.2-8.4,12.4-15.7,23.5-22.1,33.2ZM144.33,89.6c-5.4-11.3-15.2-23.9-32.9-33.2,2.4,2.2,4.8,4.6,7.4,7.4,3,1.3,6,3.2,9.1,5.7,5.4,4.4,11,10.9,16.4,20.1ZM156.43,139.6c.6-.9,1.2-1.8,1.8-2.7-1.4.3-2.9-.1-3.9-1,.8,1.3,1.5,2.5,2.1,3.7ZM153.13,133.8c-7.7-27.1-17-43.9-26.3-53.7-.1-.1-.2-.2-.3-.3h0c-1.9,1.4-4.6,1.1-6-.8-2.3-3-4.6-5.7-6.8-8.1-.4-.2-.8-.3-1.2-.4,3.5,8.6,7,18.7,10.6,30.2,1.8,3.1,3.7,6.2,5.5,9.4,1.3-.3,2.7,0,3.8.8,9.1,7.3,15.8,15.1,20.7,22.9ZM185.13,95.3c-1.9,4-3.8,8.1-5.6,12.2,8.8-11.6,16.7-20.9,23.5-28.1.7-4.1,1.4-8.2,2.2-12.3-5.5,7.5-11.4,16.2-17.6,26.4-.5.9-1.5,1.5-2.5,1.8ZM248.83,18.7c-2.1-.9-4.1-1.3-6.1-1.3-2.3,0-4.4.6-6.4,1.7,3.2-.6,6.4-.5,9.3.5,1.1-.4,2.2-.6,3.2-.9ZM85.23,37.3c-2-2.5-3.9-4.5-5.7-6.1-6.9-6.1-11.8-5-13.3-1.3-.2.5-.4,1.1-.6,1.7,1.2.8,2.3,1.7,3.4,2.6.6.5,1.1,1,1.7,1.5,4.4-.2,9.2.4,14.5,1.6ZM56.53,35.7c-4.3-2.4-8.6-3.4-12.7-2.3-4.1,1.1-7.8,4.2-11.1,9.7,4.1-3,9.7-5.7,16.8-6.1,2.2-.1,4.5,0,6.9.4,0-.6,0-1.2.1-1.7ZM22.13,74.7c-4.3,31.9,9.3,61.8,28.4,88,6,8.2,12.6,16.1,19.3,23.6-1.9-5-3.6-9.9-5.2-14.8-13.9-22.7-26.2-46.1-34-66.5-4.3-11.2-7.3-21.5-8.5-30.3ZM101.23,230.3c10.2,15.9,22.4,31,36.7,44.2-5.6-7.4-10.9-14.5-15.9-21.5-4.8-4.4-9.6-9.4-14.4-14.9-2.1-2.4-4.3-5.1-6.4-7.8ZM155.83,289c4.1,2.6,7.7,3.6,11.3,3h.1c3.4-2.4,9.5-7.1,17.1-13.6.9-1.1,1.8-2.2,2.7-3.4v-.2c-.3-2.5-.6-5.2-1.1-7.9-5.1,3.9-10.5,6.2-16.1,7-8.1,1.2-16.7-.6-25.4-4.9,3.7,4.8,7.5,9.7,11.5,14.7,1.3,1.5,1.2,3.8-.1,5.3ZM275.53,60.2c-.2-8.2-1.5-15-3.4-20.3,0,0,0-.1-.1-.1-3.7-4.9-7.3-8.9-10.6-12.1-.3-.1-.5-.2-.8-.3-1.4-.5-2.9-.8-4.6-.9,5.8,5.5,10.2,12.7,13.2,21.1,2.8,3.9,4.8,8.1,6.3,12.6ZM268.73,135.2c5.3-10.4,9.3-21.2,9.7-31-2.3,8.9-5.3,18.4-9.1,28.5-.2.9-.4,1.7-.6,2.5ZM194.33,264.8c9.2-13.3,20.4-31.1,35.2-52.8,4.2-6.2,8.5-14,12.5-23-7.8,13.5-16.9,27.6-27.4,42.4-3.2,5.6-6.2,11-8.9,16.1-.9,1.7-2.8,2.5-4.6,2.2-2.3,3-4.7,6.1-7.2,9.2-.2.2-.4.5-.6.7.4,1.8.7,3.5,1,5.2ZM197.43,98.6c-8.7,10.6-18.7,23.9-30.2,40.4-1.7,5-3.4,10-4.9,15,3,9.3,4.3,18.2,5.2,26.3,1.4-26.3,5.8-42.9,11.1-53.2,4.5-8.7,9.9-13.2,14.8-15.3,1.4-4.7,2.7-9.1,4-13.2ZM153.53,154c-2.8-7.9-7-16-13.5-23.9,4.4,8.2,8.9,16.6,13.1,25.1.1-.4.2-.8.4-1.2ZM47.53,45.6c-6.7,1.1-11.3,5.1-13.8,7.7-2.7,2.8-3.7,7.1-3.7,12.4,0,9.6,3.2,22.1,8.6,36.3,1.4,3.6,2.9,7.4,4.6,11.2-3.8-15.2-5.6-29.2-4.9-40.9.7-11.2,3.7-20.3,9.2-26.7ZM148.83,261.6c2.9,1.4,5.7,2.4,8.5,3.1-.6-.6-.9-1.4-1-2.3-.2-1.4-.5-4.2-1.1-8-66.8-45.2-78.5-104.5-75.5-132.5-6.5-15.4-12.3-31-16.5-45.2h0c-1.8,9.1-2.5,20-1.9,32,4.8,28.3,19.4,67.1,53.4,118.4,11.9,14.1,23.2,24.9,32.2,30.3,1.4,1,2.1,2.6,1.9,4.2ZM162.73,265.6c2.7.2,5.4,0,8-.6,4.5-1.1,8.8-3.5,12.8-7.4-.1.1-.2.1-.4.2-5.7,3.2-12,3.6-18.6,1.3.1,1,.2,1.8.3,2.4.3,1.7-.6,3.3-2.1,4.1ZM99.53,61.9c-1.1-2.3-2.1-4.4-3.1-6.5-2.2-1.4-4.4-2.5-6.4-3.3,2.5,3,5.1,6.4,7.9,10.2.5-.1,1.1-.3,1.6-.4ZM190.43,124.7c-2.4,2.9-4.7,7-6.8,12.6-4.6,12.4-7.8,31.6-7.8,60.9,0,1.3-.6,2.4-1.5,3.2,1.8,4.5,3.6,8.9,5.3,13.2,1.8-37.6,5.7-67,10.8-89.9ZM261.83,51.9c-3.6-5.2-8.5-9.8-15-13.7-1.8-1.1-4.4-2.2-7.5-1.5-3.6.8-7.5,3.9-11.7,10.9-.9,1.5-1.8,3.1-2.7,4.9,2.8-2.1,5.4-3.6,7.9-4.5,7.1-2.7,12.9-1.5,16.2.8,1.9,1.4,3.2,3.1,3.7,4.9,0,.1,0,.2.1.2,2.8.9,5.8,2.2,8,4.8s3.9,6.7,3.6,13.5c-.2,4-1.1,9.3-3,16,1.6-2.6,3.2-4.9,4.8-6.8-.2-10.5-1.5-20.4-4.2-28.9,0-.1-.1-.4-.2-.6ZM56.93,48.4c-6.4,4.9-9.3,13.6-10,24.5-.8,12.8,1.7,28.5,6.5,45.4-.3-3.1-.5-6.2-.7-9.2-3.8-23.6-1.2-40.4,2.8-51.6.6-1.8,1.3-3.4,2-4.9-.2-1.4-.4-2.8-.6-4.2ZM88.63,142.1c2.3,18.6,10.4,42.5,29,66.3-9.9-17.5-18.9-37.9-25.4-58.7-1.2-2.5-2.4-5-3.6-7.6ZM68.03,62c.7,3,1.5,6.1,2.5,9.3,3,10.5,7,22,11.5,33.7-.9-7.6-1.4-14.9-1.3-21.9.1-5,2.6-10.3,6.9-14.5-.1-.2-.3-.4-.4-.6-4.9-5.6-9.5-9.9-13.9-13.2-1,.9-1.9,2-2.8,3.2-.8,1-1.7,2.4-2.5,4ZM181.03,249.1c.3-.2.5-.4.8-.6,0-.1-.1-.2-.1-.3-.2.3-.5.6-.7.9ZM214.73,214.1c17.7-30.5,38.7-66,49-98.3,1-6.1,1.7-12.1,2.1-18.1-5.9,10.8-10.8,23.6-11.3,24.7-.8,2.2-3.3,3.3-5.5,2.4-.6-.2-1.1-.5-1.5-.9-.9,2.1-1.9,4.2-3,6.4-6.8,27.9-17.9,59.2-29.8,83.8ZM188.63,241.3c3.6-4.5,7.3-10.3,11-16.9,8-14.2,16-32.4,22.9-51.4-1.3,2.3-2.6,4.7-3.9,7.1-10.3,23.3-21.3,44.7-30.6,59,.2.9.4,1.5.6,2.2ZM197.93,130.4c-4.5,21.6-8,49-9.7,83.4,4.9-10.8,9.6-23.9,13.3-37-.4.4-.8.8-1.3,1.1-.4,1.6-.7,2.7-.9,3.4-.6,2.2-3,3.6-5.3,3s-3.7-2.9-3.1-5.2c.4-1.7,1.6-6,3.4-12.2,1.1-13.2,2.3-25.2,3.6-36.1v-.4ZM177.23,233.3c-3.1-9.2-6.7-18.8-10.7-28.7-.5.5-1.1,1-1.8,1.3-2.2.8-4.7-.2-5.6-2.4-1.9-4.9-3.8-9.6-5.7-14.2-.4,2-.7,4-1.1,5.9,2.4,9.4,4.4,18.6,6.1,27.1.6,1,1.2,1.9,1.8,2.8,3.2,4.8,6.3,8.5,9,10.9.9.8,1.7,1.3,2.5,1.7.2.1.5.2.7.3,1.4-.7,2.8-2.2,4.5-4.3.1-.1.2-.3.3-.4ZM147.73,175.5c-1.3-3.1-2.6-6.1-3.9-9.1,1.2,3.5,2.4,7.1,3.5,10.8.1-.6.3-1.2.4-1.7ZM119.93,120.1c-.4-1.3-.7-2.6-1.1-3.9-1.4,0-2.8-.7-3.6-1.9-2.6-4-11.3-21-22.7-38.6-2,2.3-3.1,4.9-3.1,7.5-.1,6.4.3,13,1.1,19.9h1.1c10.6,1,20.1,7.2,28.3,17ZM243.43,55.3c-.3-.1-.6-.2-.9-.3-2.7-.6-6.4.1-10.6,2.9,3-.7,5.7-.7,7.9,0,.2-.2.4-.3.5-.5,1.1-.8,2.1-1.5,3.1-2.1ZM251.03,93c2-5.8,3.3-10.6,4.1-14.6,1.6-8,1.1-12.1-.9-14.3-.1-.1-.2-.2-.2-.2,0,5.9-.9,13.2-2.5,21.3-.2,2.4-.3,5-.5,7.8ZM130.33,213.2c5.8,9.2,11.8,17.3,17.8,23.7,1.7,1.9,3.5,3.6,5.2,5.2-.8-5-1.8-10.6-3-16.7-1-1.7-2-3.4-3-5.2-.7.3-1.4.5-2.2.4-2.4-.2-4.2-2.2-4-4.5s.4-4.6.6-6.9c-9-19.2-16.7-43.8-18-67.9-8.6-15.9-18.9-28-32.1-29.7,1.8,11.3,4.7,23,8.3,34.7,10.4,21.8,20.8,41,28,51.7,1.5,2.3,3.3,4.5,4.5,5.9.4-.1.8-.1,1.2-.1,2.4.1,4.2,2.1,4.1,4.4l-.4,2.3-.6,1.1-.6.8-.9.7-1.1.5-1.2.2h-1l-1.6-.6ZM161.83,240.6c.5,3.2,1,6.1,1.4,8.6.8.5,1.7.9,2.5,1.2.2.1.4.2.6.2h.7c.1-.1.9-.4,1.4-.7,1.1-.8,2.4-2,3.7-3.5-1.1-.1-2.2-.3-3.4-.8-2-.8-4.4-2.5-6.9-5ZM216.73,124.2c1.2,8,.7,18.4-1.2,29.9-1.3,7.7-3.2,15.8-5.4,24,.3-.6.6-1.2,1-1.7,12.7-28.8,24.3-60.5,30.3-85.3.6-2.3,1.1-4.5,1.5-6.7,0-3.6-.2-6.9-.7-9.8-.3-1.8-.7-3.4-1.2-4.7-2.2,3.2-4.5,7.2-6.8,11.6-6.2,12-12.2,27.5-17.5,42.7ZM202.53,173.1c1.5-5.5,2.7-11.1,3.8-16.4-1.3,4.3-2.4,8.2-3.4,11.6-.2,1.6-.3,3.2-.4,4.8ZM215.93,78.4c-2.4,9.2-4.7,20.3-6.7,33.6.7.4,1.4.8,2,1.2.1.1.2.1.2.2,4.7-12.9,9.8-25.5,15-35.7,2.1-4.2,4.3-8,6.5-11.2-2.8,1-6.1,2.9-9.9,5.9-2.2,1.6-4.6,3.6-7.1,6ZM207.63,122.7c-.1.8-.2,1.6-.3,2.4.2-.5.4-1.1.5-1.6,0-.2-.1-.5-.2-.8Z"/>
  </g>
</svg>