<?xml version="1.0" encoding="UTF-8"?>
<svg id="Capa_2" data-name="Capa 2" xmlns="http://www.w3.org/2000/svg" xmlns:xlink="http://www.w3.org/1999/xlink" viewBox="0 0 334.7 427.7">
  <defs>
    <style>
      .cls-1 {
        fill: none;
      }

      .cls-2 {
        fill: #580e0e;
      }

      .cls-3 {
        clip-path: url(#clippath);
      }
    </style>
    <clipPath id="clippath">
      <rect class="cls-1" width="334.7" height="427.7"/>
    </clipPath>
  </defs>
  <g id="Capa_1-2" data-name="Capa 1">
    <g class="cls-3">
      <path class="cls-2" d="M169.2,267.3c-4.2-5.4-11.2-7-17.7-6-14.9,2.4-21.1,18.7-25.8,31.1-6.9,18.4-10.7,37.4-11.4,57-.7-1.1-1.3-2.2-2-3.4-6.6-11.3-13.9-22.1-21.9-32.3-7.9-10.1-17.1-18.6-27.8-25.7-9.3-5.9-25.8-15-35.8-5.9-5.1,4.6-5.9,11.8-6,18.3-.1,6.7.7,13.2,2.5,19.7,3.6,13.2,10.5,25.3,18.8,36.2,9,11.4,18.8,21.9,29.6,31.6,11.2,10.4,22.5,21.1,34.6,30.3,5.4,4.1,11.3,7.5,18.1,8.4,1.6.3,3.1,0,4.5-.7,4.9,1.2,10.2,1.3,14-1.9,2.9-2.6,3.4-5.9,2.8-9.4,1.2-1,2.2-2,3.2-3.2,4.9-5.7,7.8-12.7,10.2-19.8,5.4-16.1,7.7-33.5,10.4-50.2s6.2-33.7,5.7-50.5c-.4-7.6-1-17.2-6-23.6ZM34.1,313.8c-1.2-5.5-1.6-11.1-1.2-16.7.2-1.8.3-4.6,1.8-6,1.5-1.3,4.6-.7,6.5-.1,4.1,1.2,8,2.9,11.6,5h-1.2c-7.1.6-12.7,5.7-12.6,13.1.1,6.6,3.8,13.4,6.3,19.3,2.7,6.3,5.7,12.4,8.9,18.5,3.2,5.9,6.6,11.6,10.3,17.2-13.6-14.1-26.1-30.7-30.4-50.3ZM77.6,328c-4.5-5.2-9.2-10.2-14.2-15-4.1-3.9-9.7-.7-10.1,4.2-1.5-3.5-3.2-7.8-2.1-8.9,1.1-1.2,4.8,0,6,.5,2.5,1.1,4.8,2.5,6.9,4.4,4.3,3.8,8.3,7.8,12.1,12.1.9.9,1.7,1.9,2.5,2.9-.3-.1-.7-.2-1.1-.2ZM126.5,412.6l.3-.1c0,.1.1.2.2.4l-.5-.3ZM132.6,318.7c-2.6,17.3-4.4,34.7-5.6,52.2v.4l-.3-.5c-1.4-18.3,0-36.3,4.2-54.1,1.6-7.1,3.7-14,6.1-20.9-1.9,7.6-3.4,15.3-4.4,22.9h0ZM150.7,291.3c-.2,4-.5,7.9-.8,11.9-.1,1-.2,2-.3,3.1-1.2.2-2.2.7-3.1,1.4,1-5.6,2.4-11,4.2-16.4h0ZM159.5,327.9c-2.2,14.3-4.5,28.5-7.4,42.7-1.3,6.8-3.1,13.5-5.4,20.1-1.3,4-3.1,7.7-5.4,11.1-.3-.7-.6-1.5-.9-2.2,1.1-.8,1.8-1.9,2.2-3.2,7.6-22.6,13.1-45.6,16.4-69.1,1.6-11.6,2.9-23.3,3.5-35,.3-5.4.3-12.4-2.7-17.2,2.1,2.7,2.5,7.2,2.8,10.4,1.7,14.2-1,28.5-3.1,42.4h0ZM75.1,194.5c.9,1.3,1.8,2.6,2.7,3.9,2.6,3.7,7.8,4,10.3,0,15.1-24,28-49.1,38.8-75.3,9.7-23.5,19.7-48.8,20.1-74.5.2-11.9-2.1-24-8.2-34.4-6.1-10.3-16.6-18.2-28.5-11.4-10.5,6-15.4,18.6-19.6,29.3-4.9,12.3-8.3,25.1-10.3,38.2-1,6.5-1.6,12.9-1.9,19.5,0-.1-.1-.1-.1-.2-5.9-10.4-12.7-20-20.6-29-7.8-8.9-16.7-18.3-27.5-23.3-10.8-5.1-24.8-5.7-28.8,8.1C-.1,50.9.2,57.1.2,62.8c0,6.1.4,12.1,1.1,18.2,1.4,12.4,4.2,24.5,8.2,36.3s9.3,23.1,15.8,33.7c11.8,19,28.1,37.3,49.8,43.5ZM94.2,164.5c0-.6-.1-1.1-.2-1.7h1.1l-.9,1.7ZM107.9,87.4c1.7-6.5,3.5-12.9,5.4-19.4,2.5-8.3,4.7-16.9,7.8-24.9.7-1.7,1.9-4.9,3.8-5.8.1.2.2.3.2.5.1,1.7.7,3.4.7,5.2.3,16.4-5.8,32.3-11.7,47.4-.3-.6-.6-1.1-1.1-1.5-.4-.4-1-.8-1.5-1.1-.6-.3-1.2-.4-1.8-.5-.6-.1-1.2,0-1.8.1ZM116.6,117.1c-.4.9-.8,1.8-1.1,2.7l9.8-25.1.9-2.3c-3,8.4-6.4,16.7-9.6,24.7ZM90.6,86.1c.9-11.8,2.9-23.3,6.2-34.6,3.1-10.7,6.8-22.2,13-31.5,2-3,5.2-7.2,9.1-7.7,4.7-.7,8,5.2,10,8.6,1.3,2.3,2.4,4.7,3.3,7.2-.6-.6-1.3-1.1-2.1-1.5s-1.6-.7-2.4-.9c-.8-.2-1.7-.3-2.5-.3-.9,0-1.7.1-2.5.3-8.2,1.8-11.8,10.7-14.1,17.9-6.3,19.2-11.8,38.7-16.6,58.4-.5,2-.9,4-1.3,6-.6-7.4-.6-14.7-.1-21.9ZM82.5,176.3c0,.2-.1.5-.1.7l-.4-.8c.1,0,.3,0,.5.1h0ZM52.6,86.3c.6.8,1.1,1.8,1.6,2.7-3.5-4-7.6-7.5-12.1-10.4-3.1-2-7.2-.1-8.6,3-.6-3.8-.9-7.7-1.1-11.6,8.7.9,15.8,9.6,20.2,16.3ZM51.7,135c-7.6-14.2-13.1-29.1-16.6-44.8,5.2,15,10.7,30,16.6,44.8ZM12.2,61.3c0-4.2-.5-9.4,1.1-13.4,1.7-4.4,7.8-1.8,11.1-.4,6.4,2.8,11.9,7.5,16.9,12.6-2.6-1.2-5.3-1.9-8.2-2.2-2.8-.3-5.7-.1-8.5.5-.6.2-1.2.5-1.8.8-.5.4-1,.8-1.4,1.3s-.7,1.1-.9,1.7c-.2.6-.3,1.2-.3,1.9.2,40.8,19.3,77.2,41.4,110.6-8.4-6.4-15.6-14.1-21.4-22.9-6.1-8.9-11.3-18.2-15.5-28.2s-7.4-20.1-9.5-30.7c-2.1-10.2-3.1-20.8-3-31.6ZM333,114.8c-2.2-9-10.5-15.9-19.9-11.6-4.3,2-7.3,5.7-10.1,9.3-3.9,5-7.6,10.1-11.2,15.4-6.2,9.3-11.7,19.1-16.5,29.2-1.9,3.9-3.8,8-5.6,12.4-6.3-16.7-15-32-26.1-45.9-2.7-3.4-5.5-7.4-10-8.4-4.7-1-9.1,1.5-11.6,5.4-2.3,3.7-3.1,8-3.9,12.2-1,5.4-1.7,10.8-2.1,16.3-1.6,20.5,1.9,41.6,11.5,59.8,2,3.8,4.3,7.5,6.8,11s5.3,6.8,8.4,9.9c3,3.1,6.3,6,9.7,8.6s7.1,5,10.9,7.1c0,.4-.1.9-.1,1.3-.4,5.6,6.6,7.3,10.2,4.2.7-.6,1.4-1.3,2.1-1.9,1-.5,1.9-1.3,2.5-2.3,7.2-6.7,13.8-13.9,19.8-21.7s11.3-16,15.9-24.7c4.6-8.7,8.4-17.7,11.5-27s5.4-18.8,6.9-28.6c1.3-9.5,3.3-20.5.9-30ZM245.3,169.5c-2.9,1.2-3.9,4-3.5,7.1.8,5.2,1.7,10.5,3,15.7-.7-2.3-1.3-4.4-1.8-6.3-3.7-12.8-6.3-25.9-7.6-39.2,3.9,7.3,7.4,14.9,10.4,22.6l-.5.1ZM304,159.6c-.9.1-1.8.4-2.5.9-.8.5-1.3,1.2-1.8,2.1-.5.9-1,1.8-1.4,2.7-.8.5-1.4,1.2-1.8,2-.4.8-.7,1.7-.6,2.7-2,3.9-4,7.8-6,11.7,4.6-11.7,10.2-23,16.8-33.7-.8,3.8-1.7,7.7-2.7,11.6ZM319.9,145.6c-2,11.6-5.2,22.8-9.6,33.6,6.4-17.6,10.1-35.8,11.1-54.4.2-4.2-5.3-7.4-8.8-5.4,1.3-1.8,4-5.8,6.2-5.7,2.4.2,2.9,5.2,3.1,6.9.8,8.1-.6,17-2,25Z"/>
    </g>
  </g>
</svg>