<?xml version="1.0" encoding="UTF-8"?>
<svg id="Capa_2" data-name="Capa 2" xmlns="http://www.w3.org/2000/svg" viewBox="0 0 116.38 289.67">
  <defs>
    <style>
      .cls-1 {
        fill: #580e0e;
      }
    </style>
  </defs>
  <g id="Capa_1-2" data-name="Capa 1">
    <path class="cls-1" d="M54.97,12.37c0,1.1,1.4.9,2.3,1.1h1.1c-.6-3.6,2.7-4.6-1.1-5.7-.6,1.7-1.7,2.9-2.3,4.6ZM73.17,36.17v-3.4h-2.3c-.7.1-1.3.2-1.1,1.1,1.6.3,1.9,1.9,3.4,2.3ZM48.17,43.07c-.9,1-1.2,2.6-1.1,4.5,4.7,1.8,4-4.7,1.1-4.5ZM40.17,65.77v1.1c2.5.2,2.4,2.9,2.3,5.7,3.1.5,1.1-4.2,3.4-4.5-1.5-3-2.3-3.6-5.7-2.3ZM60.67,147.57v-6.8c-5.6-.5-2.8,6.1,0,6.8ZM68.57,177.17c-.9-.2-1.1-1.1-2.3-1.1-.3,2.6.3,4.3,2.3,4.5v-3.4ZM115.17,218.07h-1.1c-.3.9,0,2.2-1.1,2.3-.3,1.8,1.1,2,1.1,3.4,1.7-1,2.4-2.9,2.3-5.7-.4,0-.8,0-1.2,0ZM111.77,237.37c.9.2,1.1,1.1,2.3,1.1v2.3h-3.4c3.3,3.3-2.2,3.6-1.1,8-3.5,1.4-6.7,3.2-10.2,4.5.3,1.4,2.3,1.1,2.3,0,3.5,1.1-.5,3.8-1.1,4.5h-1.1c-.1-5.3-3.5.5-4.5,1.1h-3.4c-1-.2-1.1.4-1.1,1.1v2.3h-5.7c.2,3.6,3.8,3.8,4.5,6.8-1.2,2.7-5.6,2.7-6.8,0-2.5-.2-.5,4-1.1,5.7-.9.2-1.1,1.1-2.3,1.1h-1.1c-2.3-2.3.5-2.2,1.1-4.5-1.9-.1-2.9.8-3.4,2.3v1.1c-.3,1.4-2.3,1.1-2.3,0h-1.1c-.2.9-1.1,1.1-1.1,2.3h-1.1c-.2-1,.4-1.1,1.1-1.1.5-3.2-6.2.9-5.7-2.3,5.7.9-.5-5.2-1.1-1.1v1.1c-1-.2-1.1.4-1.1,1.1v2.3c0,2.3,3.1,1.4,2.3,4.5-1.1-1.2-4.2-.4-3.4-3.4h-6.8c-.3,1.8,1.1,2,1.1,3.4.5,2.4-.8,3-1.1,4.5.2-2.9-12.1.6-9.1-4.5.2-.3,1.9.3,2.3,0v-1.1h-1.1c-.5-1-1-2-2.3-2.3-.2-.9-1.1-1.1-1.1-2.3-1.3,1-3,1.5-5.7,1.1.1-4.2,1.3-3.2,0-6.8h-5.7c-1.3-.2-1.2-1.8-1.1-3.4-.9.2-1.1,1.1-2.3,1.1-.9-2.2-3.4-.8-1.1-3.4-.9-.2-1.1-1.1-2.3-1.1h-1.1c.6-4-1-5.9-3.4-6.8h-2.3c-2.6,2.2-1.2-9.4-5.7-9.1.6-2.3,3.4-2.2,1.1-4.5h-2.2c.6,2.3-2.2,2.7-2.3,1.1,0-1.6-.5-2.5-1.1-3.4h-1.1c.5-2.4-.8-3-1.1-4.5-.4-1.9.9-2.1,2.3-2.3-1.7,3.3,5.1,3.3,3.4,0,.4-1.9-.9-2.1-2.3-2.3v-3.4c1-2.3-2.9-5.1-3.4-2.3-1,.2-1.1-.4-1.1-1.1,1-1.3,1.5-3,1.1-5.7h1.1c-.1-1.6.5-2.5,1.1-3.4-.6-.9-1.2-1.8-1.1-3.4v-3.4c-2.6-.5,0-6-2.3-6.8-1-.9-.7-3.1-2.3-3.4-.8-4.2,2.5-4.4,2.3-8v-3.4c-2.3-4.3.7,5.9-3.4,3.4-.9-3.2,1.6-2.9,1.1-5.7.2-.9.9-1.3,2.3-1.1v-1.1c1,.2,1.1-.4,1.1-1.1-.5-1-1-2-2.3-2.3v1.1H.87v-2.3c-.4-1.9.9-2.1,2.3-2.3h1.1c-.1-1.8.5-4.3-1.1-4.5.2-3.1.2-5.9-2.3-3.4-1.6-1.6-1.1-6.9,2.3-6.8-.2-.9-1.1-1.1-1.1-2.3.1-.7.2-1.3,1.1-1.1-1.3-3,3.5-4.9-1.1-4.5-.2-1,.4-1.1,1.1-1.1,2.1-3-.5-3.4,1.1-6.8,1,.5,2,1,2.3,2.3,1.1,0,.9-1.4,1.1-2.3-.6-.9-1.2-1.8-1.1-3.4-1.6.1-3.2.2-3.4-1.1.9-.2,1.1-1.1,2.3-1.1-.2,1,.4,1.1,1.1,1.1h1.1c-.2-.9-1.1-1.1-1.1-2.3.7-.1,1.3-.2,1.1-1.1.2-.9,1.1-1.1,1.1-2.3-.2-.9-1.1-1.1-1.1-2.3-.2-1,.4-1.1,1.1-1.1-.1-2,1.4-2.4,1.1-4.5-.9-.6-1.8-1.2-3.4-1.1-.3-1.8,1.1-2,1.1-3.4h-1.1c-.5-2.4.8-3,1.1-4.5,4.4-2.8-.6-8.1,3.4-11.4v-1.1c-.3-1.2-2.3-.8-2.3-2.3v-1.1c.9.2,1.1,1.1,2.3,1.1.5-2.2-3.5-4.9,1.1-4.5-3-3.6,1.3-7.1,2.3-10.2-1.4-.3-1.5-3.4,0-3.4-.2-1,.4-1.1,1.1-1.1,4.9-6.9-7.8-1.6,0-5.7,1.9,0,2.9-.8,3.4-2.3v-2.3c-.2-1,.4-1.1,1.1-1.1,3.1-3,.6-6.2,1.1-9.1.1-.6,2.2-1.9,2.3-2.3.5-1.7-1.1-1.6-1.1-2.3-.2-1.8,2.2-6.3,0-10.2,1.6-2.5,2.8,1.4,3.4-1.1-.1-1.9.8-2.9,2.3-3.4-3.4-9.8,5-13,2.3-21.6,2.3,1.9,1.4-.1,4.5,0h1.1c.6-.9,1.2-1.8,1.1-3.4h1.1c1-.5,2-1,2.3-2.3,2.1-2.1,3.8-4.5,6.8-5.7-.2-1.3.2-2,1.1-2.3-.6-2.9-1.9-4.4,2.3-4.5,1-.2,1.1.4,1.1,1.1,4-.1-2.4-3.8,1.1-3.4.3-2,2-2.6,4.5-2.3-1.6.7-.2,4.4-2.3,4.5v3.4c-2.5-.6-1.6,2.2-3.4,2.3.1,1.6.2,3.2-1.1,3.4-.5,2.4,1.6,2.2,3.4,2.3v3.4c6,1.2,10.3,4,12.5,9.1.7,2.5-3.2,3.6,1.1,3.4v1.1c-.2.9-1.1,1.1-1.1,2.3-.2,1,.4,1.1,1.1,1.1,1.3-.2,2,.2,2.3,1.1h1.1c-.6,1.1-5.1,3.8-2.3,4.5.9-.2,1.1-1.1,2.3-1.1,1.7.6,2.9,1.7,4.5,2.3v1.1c2.5-.2.5,4,1.1,5.7,2,.8.2,2.1,0,3.4h-5.7c.2,1.3,1.3,1.8,2.3,2.3,1.8.3,2-1.1,3.4-1.1v2.2c-.1,1.6-.2,3.2,1.1,3.4v5.6c-.8,1.9,2.3,4.9,2.3,2.3,3-.4-1.1,6.4,3.4,4.5v1.1c-.1,1.6-.2,3.2,1.1,3.4v2.3h-2.3c-.1,1.6.5,2.5,1.1,3.4h1.1c.6.9,1.2,1.8,1.1,3.4.1,1.9-.8,2.9-2.3,3.4.5,1.4,1.5,2.3,3.4,2.3h1.1c-.9,1-1.2,2.6-1.1,4.5-1.5-.1-1.6-1.5-3.4-1.1-1.4,1.3-.4,2.9,0,1.1,2.8.2.3,3.8,0,4.5,1.4-.5,2.3-1.5,2.3-3.4,3.2-.2-.9,7,2.3,6.8h1.1c1.5-.2,4.2,3.8,4.5,1.1,2.8.1.2,3.8-1.1,3.4-1.6-.1-2.5.5-3.4,1.1.7,1.5,2.4,2.1,4.5,2.3v-1.1c.9.2,1.1,1.1,2.3,1.1v1.1c-1-.2-1.1.4-1.1,1.1v2.3c-1.1.8-1.7,2.1-2.3,3.4-1.1,0-.9,1.4-1.1,2.3,1.9.4,2.1-.9,2.3-2.3.9-.6,1.8-1.2,3.4-1.1h1.1v2.2c.9.2,1.3,1,1.1,2.3h1.1v1.1h2.3v4.5c-2.1,1.1-3.8-3.4-4.5,0-1.8.3-2-1.1-3.4-1.1-.1,1.9.8,2.9,2.3,3.4,1.6.1,3.2.2,3.4-1.1,3.4,1.4-.2,5-3.4,3.4-.2,2.8,1.8,3.5,2.3,5.7,1.4.3,1.1,2.3,0,2.3v2.3c1.1,0,.9,1.4,1.1,2.3-.3,1.8,1.1,2,1.1,3.4-1.9.7-.7,2.6,1.1,2.3.3,1.2,2.3.8,2.3,2.3h-4.5v6.8c1.9.4,2.1-.9,2.3-2.3h1.1c-.2,1.3.2,2,1.1,2.3v3.4h1.1v2.3c-.9.2-1.1,1.1-2.3,1.1v-1.1c-1.4-.1-2.7-.3-2.3-2.3h-1.1v2.2c.9.2,1.1,1.1,2.3,1.1v4.5c-.2.9-1.1,1.1-1.1,2.3,3.2.9,2.9-1.6,5.7-1.1.6,4.5.6,3.4,0,8v1.1c0,1.1.9,1.3,1.1,2.3-.2,4.4.9.4,3.4,1.1-.5,1-1,2-2.3,2.3-.7,3.7.8,5.3,1.1,8-1.5,1.1-2.3,3-3.4,4.5,1.7,3.8,2.8-2.4,5.7-1.1v1.1c-.5,3.6,3.1,3,3.4,5.7-1-.2-1.1.4-1.1,1.1v2.3h-2.3c.5,2.2,4.4.9,3.4,4.5-.9.6-1.8,1.2-3.4,1.1h-1.1v3.4c-1.3,1.7-1.3,2.9,0,4.5-.2.9-1.1,1.1-1.1,2.3.3,1.8-1.1,2-1.1,3.4,1.8.3,2-1.1,3.4-1.1.3,1.8-1.1,2-1.1,3.4-1.1,0-1.3.9-2.3,1.1-1.8.3-2-1.1-3.4-1.1v3.4c0,1.1-1.4.9-2.3,1.1h-1.1v4.5c3,3,.9-1.8,4.5-1.1v-1.1h1.1v-2.2c0-1.1,1.4-.9,2.3-1.1.5,1.2,1.4,1.4,1.4,2.5ZM106.07,213.47c-.4,2,1.7,2.9,0,3.4-.7.1-1.3.2-1.1,1.1.3.9,0,2.2,1.1,2.3,0-1.5,2-1,2.3-2.3,2.4-.3.3-5.3-2.3-4.5ZM56.07,53.27c-.2-1.7.4-4.2-1.1-4.5-1.5,1.5-.7,3.4,1.1,4.5ZM76.57,96.47c.4-1.9-.9-2.1-2.3-2.3,0,1.1-.9,1.4-1.1,2.3h3.4ZM71.67,148.27q0,.1,0,0,0,.1,0,0ZM71.37,148.57q0-.1,0,0,0-.1,0,0ZM67.57,146.07s0-.1,0,0c0-.1,0,0,0,0ZM67.77,145.77s-.1,0,0,0c-.1,0,0,0,0,0ZM67.87,145.67s0-.1,0,0c0-.1,0,0,0,0ZM71.97,213.47c2.4.7,3.2,2.8,6.8,2.3v-2.3c-1.3-.2-1-2.1-1.1-3.4-3.5-.5-4.6,1.4-5.7,3.4ZM60.67,29.37c2.6-.3,1.3,3.3,3.4,3.4,1.2-2.9-2.4-6.4-3.4-3.4ZM50.37,30.57c-.1-1.6.5-2.5,1.1-3.4,2.2.5,2.1,3.2,5.7,2.3.9-.2,1.3-1,1.1-2.3v-2.3c-2.4-1.4-1.5-4.7-4.5-4.5.3-.1-9.2,10.3-3.4,10.2ZM52.67,279.47v1.1c1.3,4.8,4-.6,0-1.1ZM69.77,236.27v-2.2h3.4c.3-.9,0-2.2,1.1-2.3v-1.1c.1-.7.2-1.3,1.1-1.1v-3.4c-.5-1.3-1.2-2.6-2.3-3.4-1.1-4.5-2.5-8.8-4.5-12.5,2.2-2.1,2.9-.1,5.7,0-.2-3.6-2.6-5-2.3-9.1.7-.1,1.3-.2,1.1-1.1,5.7-.3-.2-10.4,2.3-11.4v-4.5c0-1.6.5-2.5,1.1-3.4v-2.2c-.7-.1-1.3-.2-1.1-1.1-.1-1.6-2.9-1.2-2.3,1.1h-1.1c-.1.7-.2,1.3-1.1,1.1-.2-.9-1.1-1.1-1.1-2.3,1.4-.2.7-1.3,0-2.3-4.9-.7-4.8-6.6-6.8-10.2v-3.4h2.3c2.3,1.3,5.4-1.8,2.3-2.3v-1.1c-.1-1.6.5-2.5,1.1-3.4-5.2,1.1-7.5-5.2-3.4-6.8-.9-.3-2.2,0-2.3-1.1,3.3.3,3.9-.3,2.3-2.3,1.5-5.7-3.5-4.8-3.4-9.1,1.6,0,2.5-.5,3.4-1.1,2.9-1.2,4.4-5.3,1.1-6.8-.5,1.9-1.5-.2-3.4,0-.3.9,0,2.2-1.1,2.3.1.7.2,1.3,1.1,1.1,5.4-1.9,4.5-.1,1.1,2.3-.7-.1-1.3-.2-1.1-1.1h-5.7c2.3-3.4-3.5-3.3-4.5-5.7-1.1-2.6-1.8-6.8,1.1-8,.2,5.2,4.7,7.9,6.8,8h1.1c1.7-.2,4.2.4,4.5-1.1-.9-.2-1.3-1-1.1-2.3-1.6.1-2.5-.5-3.4-1.1-.3.9,0,2.2-1.1,2.3v-2.3h-1.1c-1.1,2.9-5-.9-4.5-3.4,3.6.3-2.9-3.3,1.1-3.4,1.5,2.2,2.3-2.7,5.7,0v1.1h3.4v-4.5c.2-1-.4-1.1-1.1-1.1h-2.3c-.3-.9,0-2.2-1.1-2.3v-5.7h-1.1v2.3h-1.1c-3.8-.7-5.2-3.9-5.7-8,.1-.7.2-1.3,1.1-1.1.2,1.3-.2,3.2,1.1,3.4h3.4c.9-.3,2.2,0,2.3-1.1v-4.5c.1-1.8,2.9-.9,2.3-3.4,1.6-1.7.9-3.6-2.3-3.4.2-2.1-1.3-2.5-1.1-4.5v-1.1c0-1.1.9-1.3,1.1-2.3-1.5.1-1.6,1.5-3.4,1.1-2,.6.5,1.2,1.1,2.3-3.1-.8.8,5.4-2.3,4.5h-2.3v-8c-3.6,1-3.6-1.8-4.5-3.4,2.5-.7,3.6,3.2,3.4-1.1.1-.7.2-1.3,1.1-1.1,0-1.1.9-1.4,1.1-2.3-1.4-.1-2.7-.3-2.3-2.3.1-2.9,4.9-1.2,3.4-5.7-.7.1-1.3.2-1.1,1.1-.6,3.7-4.4,1.7-3.4-2.3,1.1,0,1.4-.9,2.3-1.1h1.1c0-1.1.9-1.3,1.1-2.3-.7-.1-1.3-.2-1.1-1.1h-2.3v-1.1c-1.3-1.3-1.3-4-1.1-6.8v-3.4c-.2-2.8,1.8-3.5,2.3-5.7.7-.1,1.3-.2,1.1-1.1,2.4-.3-1.2-3.9-3.4-3.4v2.3c-1.8.1-.9,2.9-3.4,2.3-1.9,1.1-.8,5.3-3.4,5.7,1.4.2.7,1.3,0,2.3-.7.1-1.3.2-1.1,1.1,1.1,0,1.4,2,0,2.3-.3.9,0,2.2-1.1,2.3v1.1c2.7.3.7,5,0,5.7h-2.3v2.2c-2.4.6-2.4,1.8-1.1,3.4.1,2-.3,3.5-1.1,4.5-1,.3-3.8,4.2-1.1,4.5.5-1.4,1.5-2.3,3.4-2.3.1,1.5,1.5,1.6,1.1,3.4-1.7.2-1,2.8-1.1,4.5h2.3v3.4c-1-.2-1.1.4-1.1,1.1h-1.1v1.1c-3.1-.8.8,5.4-2.3,4.5h-1.1c-.3,1.6-1.9,1.9-2.3,3.4h2.3c.2,1.4,1.3.7,2.3,0v2.3c-4.3-.9-4.4,2.4-5.7,4.5.1,1.5,1.5,1.6,1.1,3.4h-1.1v3.4c.1,1.5,1.5,1.6,1.1,3.4h-2.3c-1.4.1-2.7.3-2.3,2.3v3.4c0,1.1.9,1.4,1.1,2.3-.9.2-1.3.9-1.1,2.3-.2.9-1,1.3-2.3,1.1,1.5,1.5.7,3.4-1.1,4.5v1.1c.3,3.4,4.2-4.6,5.7,0v1.1c1.8,4-3.9.7-3.4,3.4.9,2.8-7.3,2.2,0,3.4-.1,3.5,4.1,2.7,3.4,6.8-2.2,2.1-2.1-.7-5.7,0v4.6c-1.5,1.4-1.8.4-3.4,0v1.1c.5,1.3,1.2,2.6,2.3,3.4v-1.1c.1-.7.2-1.3,1.1-1.1.1.7.2,1.3,1.1,1.1h1.1c1.1,0,1.3.9,2.3,1.1-.6,1.3-1.2,2.6-2.3,3.4h-1.1c-1.3.1-1.8-1.7-2.3,0,.1.7.2,1.3,1.1,1.1-.2,1.3-1.3,1.8-2.3,2.3,0,1.1-.9,1.4-1.1,2.3,1.5.1,3.1-.1,3.4,1.1,1,3.7,2.3.9,3.4,3.4-.1-.1-.2,6,0,5.7-1.1,2-5.2-.5-4.5,3.4h2.2c1.3.2,1.2,1.8,1.1,3.4.1,1.4,1.5,1.6,1.1,3.4-1.1,0-1.4-.9-2.3-1.1-.1.7-.2,1.3-1.1,1.1,1.2,3.7,2.9,2.4,0,5.7,1.6,0,2.5.5,3.4,1.1-.3,2.1,1.3,2.5,1.1,4.5h-4.5v1.1c1.3,3-.3,5.2,0,5.7.7.9,2-.4,2.3,1.1.2,1.3-.1,3.3-1.1,3.4-1.1,2.1,3.4,3.8,0,4.5v4.5c2.9,2,4,5.8,3.4,11.4h1.1c1.7.2,1,2.8,1.1,4.5,4.8,1.6-.9-6.1,3.4-4.5.7.3,2.5,2,2.3,5.7,1.9,1.9,6.7.9,5.7,5.7-1.1,0-1.4-.9-2.3-1.1v3.4c.7.1,1.3.2,1.1,1.1.7.1,1.3.2,1.1,1.1,3.9-1,3.9,1.8,2.3,3.4,1.4.1,2.7.3,2.3,2.3,2.7,0,3.3-2,6.8-1.1-.3-3,1.6-3.7,4.5-3.4-.2-2.5.9-3.6,3.4-3.4h1.1c-1.3-4.4,3.2-3.8,4.7-2.2ZM74.27,269.17c2.2-.3,2.5,1.3,4.5,1.1,1.9-3.1-4.8-3.1-4.5-1.1ZM109.47,243.07c-.5-1-1-2-2.3-2.3-.6.9-1.2,1.8-1.1,3.4,1-.6,1.9-1.2,3.4-1.1ZM92.47,261.27v3.4h3.4c.8-3.1-2.3-2.2-3.4-3.4ZM34.47,274.87c.2.9.9,1.3,2.3,1.1v-2.3h-1.1c-1-.1-1.1.5-1.2,1.2ZM68.57,278.27v3.4c.9-.3,2.2,0,2.3-1.1-.5-1-1-2-2.3-2.3ZM64.07,285.07c-.1-.7-.2-1.3-1.1-1.1-1.1,0-1.4-.9-2.3-1.1,0-1.1-.9-1.3-1.1-2.3-.7.1-1.3.2-1.1,1.1-1.5,2.7.2,2.1-1.1,5.7,0,1.1.9,1.4,1.1,2.3,3.6-.5,6.9-1.4,8-4.5h-1.1c-.6-.1-.9-.1-1.3-.1ZM49.27,50.97c-1.6-4.9-2.2,4.5,0,2.3.2-.2.1-2.1,0-2.3ZM81.07,60.07v-3.4h-2.3v1.1c-.4,2,.9,2.2,2.3,2.3ZM85.67,74.87h3.4c.9-3.9-4.3-4.4-4.5-1.1.9-.3,1,.4,1.1,1.1ZM87.97,81.67c1.1,0,1.3.9,2.3,1.1,1.3-1.6,1.2-2.8-1.1-3.4-1,.3-1.4,1-1.2,2.3ZM31.07,163.47c0-2.7,2-3.3,1.1-6.8-3.8-1.8-5.3,7.6-1.1,6.8ZM110.67,183.97h1.1c-.3-2.2,1.3-2.5,1.1-4.5-3.4-1.2-2,2.5-2.2,4.5ZM70.87,196.47h1.1c0-1.1,1.4-.9,2.3-1.1-1.9-3.6-8.7-1.1-3.4,1.1ZM39.07,216.87c-.2,2.8-.2,5.5,2.3,5.7.1-2.8.2-5.5-2.3-5.7ZM12.87,257.87v2.3c1.5.1,1.6,1.5,3.4,1.1v-2.3c-1.4-.1-1.5-1.5-3.4-1.1ZM81.07,278.27c-.9-.2-1.1-1.1-2.3-1.1-6.5,0,2.2,6.6,3.4,2.3-.6-.1-1.3-.2-1.1-1.2Z"/>
  </g>
</svg>