<?xml version="1.0" encoding="UTF-8"?>
<svg id="Capa_2" data-name="Capa 2" xmlns="http://www.w3.org/2000/svg" viewBox="0 0 960.03 171.5">
  <defs>
    <style>
      .cls-1 {
        fill: #fff;
      }
    </style>
  </defs>
  <g id="Capa_1-2" data-name="Capa 1">
    <g>
      <path d="M522.25,105.77c-9.79,32.46-50.79,34.54-74.92,15.8,0,32.6,8.04,54.85-35.39,47.46l-.07-132.47c0-1.92,2.31-4.13,3.84-4.13,9.52.24,23.99-2.22,30.21,7.35,52.79-24.76,93.84,10.57,76.32,65.98ZM485.28,105.51c13.63-19.36,4.39-56.43-24.23-46.93-16.03,4.5-13.77,18.51-13.18,34.98.79,17.22,26.17,23.57,37.41,11.96Z"/>
      <path d="M642.84,35.55c30.45-8.73,28.41,6.29,27.71,31.71,3.59,35.91-15.33,61.21-52.37,63.5-2.02,33.8,9.57,33.59-28.25,32.72-1.76,0-5.15-3.09-5.16-4.82l-.24-27.87c-56.13-1.58-53.76-42.11-53.94-86.28.22-5.45,2.3-9.54,8.24-10.51s22.82-1.89,23.11,7.36c.38,12.1.08,23.14-.49,35.13-1.86,15.89,5.15,32.12,23.11,32.47l.34-49.38c.03-4.87,7.73-5.05,10.83-5l16.72.28c2.8.05,5.6,2.87,5.61,5.61l.11,48.03c43-3.11,10.05-63.23,24.66-72.96Z"/>
      <path d="M874.74,129.28c0,10.1-22.95,3.94-27.96,1.35l-5-7c-14.26,13.56-39.05,15.82-56.56,8.43-26.89-11.36-28.64-53.85-17.73-79.16,11.03-25.6,56.76-26.95,73.93-6.1,2.42-17.54,17-13.87,29.72-14.43,7.85-2.63,1.83,94.85,3.61,96.91ZM825.99,109.86c11.46-9.6,11.79-38.94.18-48.42-9.69-7.18-29.73-5.1-33.26,8.17-7.17,26.18,2,56.53,33.07,40.26Z"/>
      <path d="M387.53,128.24c-21.67,12.3-111.54,16.07-86.91-27.18,1.45-2,5.51-3.94,7.21-1.74,14.19,17.41,38.67,17.14,58.2,11.23,12.92-10.67-17.14-11.35-23.89-11.59-13.21-.7-33.75-4.23-40.47-17.07-6.92-13.23-2.77-29.54,9.58-38.06,19.78-15.01,84.34-19.06,94.22,9.09,1.66,7.82-6.39,17.07-14.1,16.09-11.47-23.32-61.92-13.34-52.37-2.23,6.7,5.75,28.13,4.76,36.56,6.41,33.55,1.77,41.63,39.72,11.98,55.04Z"/>
      <path d="M237.58,64.23c-10.89,2.93-21.4,15.52-21.36,24.57-2.25,51.31,12.38,44.37-31.34,44.47-1.63,0-3.96-1.9-3.96-3.77l.03-90.86c0-2.18,2.9-4.49,4.67-4.44,13.44.61,31.41-2.97,30.64,17.19,17.88-22.78,61-28.47,72.36,2.47,7.07,11.66,3.49,65.45,4.43,78.89-11.32.59-31.09,3.83-33.64-11.44-2.75-16.24,8.8-64.86-21.83-57.08Z"/>
      <path d="M917.62,133.08l-31.73.3c-2.1.02-4.03-2.84-4.03-4.99l.17-89.88c.02-8.34,18.73-4.58,22.51-3.47,8.87,2.61,11.51,10.36,13.04,20.02,5.84-16.96,20.39-25.39,37.49-21.64,2.31.51,4.97,2.21,4.96,4.87l-.08,27.19c-9.66,1.4-20.96-2.97-30.28,5.85-15.97,12.43-10.89,44.29-12.04,61.75Z"/>
      <path d="M728.9,69.67c-25.26,18.46-6.42,63.66-17.81,63.66h-28.19c-1.46,0-4.05-2.09-4.04-3.84l.5-94.5c17.04-4.97,34.73.53,35.47,20.6,4.76-16.14,18.33-24.98,34.01-22.47,4.9.79,8.48,1.49,8.45,7.48l-.11,20.98c.16,10.6-15.89-1.55-28.27,8.09Z"/>
      <path class="cls-1" d="M485.28,105.51c-11.24,11.62-36.62,5.26-37.41-11.96-.58-16.46-2.85-30.47,13.18-34.98,28.62-9.5,37.86,27.58,24.23,46.93Z"/>
      <path class="cls-1" d="M825.99,109.86c-31.09,16.27-40.24-14.08-33.07-40.26,3.52-13.27,23.56-15.35,33.25-8.17,11.61,9.48,11.28,38.81-.18,48.42Z"/>
      <g>
        <path d="M173.98,85.75c-1.95,114.35-172.04,114.33-173.98,0,1.95-114.34,172.04-114.32,173.98,0ZM104.14,136.33l-4.89-47.21c33.82-16.75,9.58-65.99-22.46-52.58-23.54,10.06-23.2,44.87,1.67,53.67l-3.65,46.31,29.33-.19Z"/>
        <path class="cls-1" d="M104.14,136.33l-29.33.19,3.65-46.31c-24.87-8.8-25.22-43.61-1.67-53.67,32.05-13.41,56.28,35.85,22.46,52.58l4.89,47.21Z"/>
      </g>
    </g>
  </g>
</svg>