<?xml version="1.0" encoding="UTF-8"?>
<svg id="Capa_2" xmlns="http://www.w3.org/2000/svg" version="1.1" viewBox="0 0 960 171.5">
  <!-- Generator: Adobe Illustrator 30.1.0, SVG Export Plug-In . SVG Version: 2.1.1 Build 136)  -->
  <g id="Capa_1-2">
    <g>
      <path d="M522.3,105.8c-9.8,32.5-50.8,34.5-74.9,15.8,0,32.6,8,54.8-35.4,47.5V36.6c0-1.9,2.2-4.1,3.8-4.1,9.5.2,24-2.2,30.2,7.3,52.8-24.8,93.8,10.6,76.3,66h0ZM485.3,105.5c13.6-19.4,4.4-56.4-24.2-46.9-16,4.5-13.8,18.5-13.2,35,.8,17.2,26.2,23.6,37.4,12h0Z"/>
      <path d="M642.8,35.5c30.5-8.7,28.4,6.3,27.7,31.7,3.6,35.9-15.3,61.2-52.4,63.5-2,33.8,9.6,33.6-28.2,32.7-1.8,0-5.2-3.1-5.2-4.8l-.2-27.9c-56.1-1.6-53.8-42.1-53.9-86.3.2-5.5,2.3-9.5,8.2-10.5s22.8-1.9,23.1,7.4c.4,12.1,0,23.1-.5,35.1-1.9,15.9,5.2,32.1,23.1,32.5l.3-49.4c0-4.9,7.7-5,10.8-5l16.7.3c2.8,0,5.6,2.9,5.6,5.6v48c43.1-3.1,10.2-63.2,24.8-73h0Z"/>
      <path d="M874.7,129.3c0,10.1-23,3.9-28,1.4l-5-7c-14.3,13.6-39,15.8-56.6,8.4-26.9-11.4-28.6-53.8-17.7-79.2,11-25.6,56.8-27,73.9-6.1,2.4-17.5,17-13.9,29.7-14.4,7.8-2.6,1.8,94.8,3.6,96.9h0ZM826,109.9c11.5-9.6,11.8-38.9.2-48.4-9.7-7.2-29.7-5.1-33.3,8.2-7.2,26.2,2,56.5,33.1,40.3h0Z"/>
      <path d="M387.5,128.2c-21.7,12.3-111.5,16.1-86.9-27.2,1.5-2,5.5-3.9,7.2-1.7,14.2,17.4,38.7,17.1,58.2,11.2,12.9-10.7-17.1-11.3-23.9-11.6-13.2-.7-33.8-4.2-40.5-17.1-6.9-13.2-2.8-29.5,9.6-38.1,19.8-15,84.3-19.1,94.2,9.1,1.7,7.8-6.4,17.1-14.1,16.1-11.5-23.3-61.9-13.3-52.4-2.2,6.7,5.8,28.1,4.8,36.6,6.4,33.5,1.8,41.6,39.7,12,55h0Z"/>
      <path d="M237.6,64.2c-10.9,2.9-21.4,15.5-21.4,24.6-2.2,51.3,12.4,44.4-31.3,44.5-1.6,0-4-1.9-4-3.8V38.6c0-2.2,2.9-4.5,4.7-4.4,13.4.6,31.4-3,30.6,17.2,17.9-22.8,61-28.5,72.4,2.5,7.1,11.7,3.5,65.4,4.4,78.9-11.3.6-31.1,3.8-33.6-11.4-2.8-16.2,8.8-64.9-21.8-57.1h0Z"/>
      <path d="M917.6,133.1l-31.7.3c-2.1,0-4-2.8-4-5l.2-89.9c0-8.3,18.7-4.6,22.5-3.5,8.9,2.6,11.5,10.4,13,20,5.8-17,20.4-25.4,37.5-21.6,2.3.5,5,2.2,5,4.9v27.2c-9.7,1.4-21-3-30.4,5.8-16,12.4-10.9,44.3-12,61.8h0Z"/>
      <path d="M728.9,69.7c-25.3,18.5-6.4,63.7-17.8,63.7h-28.2c-1.5,0-4-2.1-4-3.8l.5-94.5c17-5,34.7.5,35.5,20.6,4.8-16.1,18.3-25,34-22.5,4.9.8,8.5,1.5,8.5,7.5v21c0,10.6-16-1.5-28.4,8.1h0Z"/>
      <path d="M174,85.7C172,200.1,1.9,200.1,0,85.7c2-114.3,172-114.3,174,0ZM104.1,136.3l-4.9-47.2c33.8-16.8,9.6-66-22.5-52.6-23.5,10.1-23.2,44.9,1.7,53.7l-3.7,46.3,29.3-.2Z"/>
    </g>
  </g>
</svg>