<?xml version="1.0" encoding="UTF-8"?>
<svg id="Capa_2" data-name="Capa 2" xmlns="http://www.w3.org/2000/svg" viewBox="0 0 140.38 130.67">
  <g id="Capa_1-2" data-name="Capa 1">
    <path d="M112.24,2.5c30.45-8.73,28.41,6.29,27.71,31.71,3.59,35.91-15.33,61.21-52.37,63.5-2.02,33.8,9.57,33.59-28.25,32.72-1.76,0-5.15-3.09-5.16-4.82l-.24-27.87C-2.19,96.16.18,55.63,0,11.46.22,6.02,2.3,1.93,8.24.95s22.82-1.89,23.11,7.36c.38,12.1.08,23.14-.49,35.13-1.86,15.89,5.15,32.12,23.11,32.47l.34-49.38c.03-4.87,7.73-5.05,10.83-5l16.72.28c2.8.05,5.6,2.87,5.61,5.61l.11,48.03c43-3.11,10.05-63.23,24.66-72.96Z"/>
  </g>
</svg>